<?xml version="1.0" encoding="UTF-8"?>
<!DOCTYPE svg PUBLIC "-//W3C//DTD SVG 1.1//EN" "http://www.w3.org/Graphics/SVG/1.1/DTD/svg11.dtd">
<svg xmlns="http://www.w3.org/2000/svg" version="1.1" width="265px" height="238px" style="shape-rendering:geometricPrecision; text-rendering:geometricPrecision; image-rendering:optimizeQuality; fill-rule:evenodd; clip-rule:evenodd" xmlns:xlink="http://www.w3.org/1999/xlink">
<g><path style="opacity:0.004" fill="#000000" d="M 240.5,2.5 C 241.833,3.16667 241.833,3.16667 240.5,2.5 Z"/></g>
<g><path style="opacity:0.004" fill="#000000" d="M 127.5,3.5 C 128.833,4.16667 128.833,4.16667 127.5,3.5 Z"/></g>
<g><path style="opacity:0.195" fill="#7c7c7c" d="M 145.5,14.5 C 134.488,13.2925 123.488,13.2925 112.5,14.5C 111.167,14.5 109.833,14.5 108.5,14.5C 114.084,12.9656 119.917,12.2989 126,12.5C 132.731,12.3534 139.231,13.0201 145.5,14.5 Z"/></g>
<g><path style="opacity:0.475" fill="#949494" d="M 107.5,14.5 C 105.485,15.9238 103.152,16.5905 100.5,16.5C 102.515,15.0762 104.848,14.4095 107.5,14.5 Z"/></g>
<g><path style="opacity:0.999" fill="#f3f3f3" d="M 145.5,14.5 C 146.167,14.5 146.833,14.5 147.5,14.5C 151.085,16.8061 155.085,18.1394 159.5,18.5C 161.684,20.5848 164.351,21.5848 167.5,21.5C 169.337,24.3722 172.003,25.7055 175.5,25.5C 176.492,25.3284 177.158,25.6618 177.5,26.5C 178.733,28.7964 180.733,30.1298 183.5,30.5C 184.035,32.4456 185.368,33.4456 187.5,33.5C 188.035,35.4456 189.368,36.4456 191.5,36.5C 191.833,38.8333 193.167,40.1667 195.5,40.5C 196.5,40.8333 197.167,41.5 197.5,42.5C 199.094,45.7642 201.427,48.4309 204.5,50.5C 204.738,52.4044 205.738,53.7377 207.5,54.5C 207.427,56.0269 208.094,57.0269 209.5,57.5C 209.427,59.0269 210.094,60.0269 211.5,60.5C 210.916,63.285 211.916,64.9517 214.5,65.5C 216.341,67.8485 217.674,70.5152 218.5,73.5C 218.674,75.861 219.007,78.1944 219.5,80.5C 218.417,80.4606 217.417,80.1272 216.5,79.5C 215.851,77.3759 215.017,75.3759 214,73.5C 212.784,75.962 212.118,78.6287 212,81.5C 211.798,79.7444 211.298,78.0777 210.5,76.5C 210.167,77 209.833,77.5 209.5,78C 210.737,81.0983 211.237,84.265 211,87.5C 210.667,86.8333 210.333,86.1667 210,85.5C 209.601,85.7284 209.435,86.0618 209.5,86.5C 206.783,82.0085 204.449,77.3418 202.5,72.5C 187.867,46.3292 165.533,31.3292 135.5,27.5C 132.411,25.2776 128.911,23.9442 125,23.5C 120.019,23.906 115.186,24.906 110.5,26.5C 110.289,24.362 109.955,22.1953 109.5,20C 111.163,18.5054 112.163,16.672 112.5,14.5C 123.488,13.2925 134.488,13.2925 145.5,14.5 Z"/></g>
<g><path style="opacity:0.208" fill="#717171" d="M 147.5,14.5 C 151.784,15.2613 155.784,16.5947 159.5,18.5C 155.085,18.1394 151.085,16.8061 147.5,14.5 Z"/></g>
<g><path style="opacity:0.6" fill="#878788" d="M 100.5,16.5 C 98.9275,17.6873 97.2608,18.6873 95.5,19.5C 94.1667,19.5 92.8333,19.5 91.5,19.5C 94.145,17.6896 97.145,16.6896 100.5,16.5 Z"/></g>
<g><path style="opacity:1" fill="#efefee" d="M 107.5,14.5 C 107.833,14.5 108.167,14.5 108.5,14.5C 109.833,14.5 111.167,14.5 112.5,14.5C 112.163,16.672 111.163,18.5054 109.5,20C 109.955,22.1953 110.289,24.362 110.5,26.5C 115.186,24.906 120.019,23.906 125,23.5C 128.911,23.9442 132.411,25.2776 135.5,27.5C 125.455,27.2048 115.455,27.7048 105.5,29C 99.151,31.5096 92.8177,34.0096 86.5,36.5C 85.6236,36.6309 84.9569,36.2975 84.5,35.5C 85.325,34.6143 86.325,34.281 87.5,34.5C 86.4251,30.062 88.0917,28.062 92.5,28.5C 93.0522,26.6693 93.0522,25.0026 92.5,23.5C 99.0734,22.3615 99.0734,21.5282 92.5,21C 93.7375,20.7679 94.7375,20.2679 95.5,19.5C 97.2608,18.6873 98.9275,17.6873 100.5,16.5C 103.152,16.5905 105.485,15.9238 107.5,14.5 Z"/></g>
<g><path style="opacity:0.204" fill="#797979" d="M 159.5,18.5 C 162.443,18.9802 165.11,19.9802 167.5,21.5C 164.351,21.5848 161.684,20.5848 159.5,18.5 Z"/></g>
<g><path style="opacity:0.004" fill="#000000" d="M 208.5,21.5 C 209.833,22.1667 209.833,22.1667 208.5,21.5 Z"/></g>
<g><path style="opacity:0.184" fill="#656565" d="M 86.5,21.5 C 85.089,23.539 83.089,24.539 80.5,24.5C 82.1815,22.9925 84.1815,21.9925 86.5,21.5 Z"/></g>
<g><path style="opacity:0.898" fill="#969696" d="M 167.5,21.5 C 170.485,22.3257 173.151,23.659 175.5,25.5C 172.003,25.7055 169.337,24.3722 167.5,21.5 Z"/></g>
<g><path style="opacity:0.353" fill="#696969" d="M 80.5,24.5 C 80.0269,25.9063 79.0269,26.573 77.5,26.5C 77.9731,25.0937 78.9731,24.427 80.5,24.5 Z"/></g>
<g><path style="opacity:1" fill="#e9eaeb" d="M 91.5,19.5 C 92.8333,19.5 94.1667,19.5 95.5,19.5C 94.7375,20.2679 93.7375,20.7679 92.5,21C 99.0734,21.5282 99.0734,22.3615 92.5,23.5C 93.0522,25.0026 93.0522,26.6693 92.5,28.5C 88.0917,28.062 86.4251,30.062 87.5,34.5C 86.325,34.281 85.325,34.6143 84.5,35.5C 84.9569,36.2975 85.6236,36.6309 86.5,36.5C 80.177,40.6721 74.177,45.3388 68.5,50.5C 65.4731,52.529 63.1398,55.1956 61.5,58.5C 61.6236,59.1067 61.9569,59.44 62.5,59.5C 59.7744,62.5963 57.2744,65.9296 55,69.5C 53.2992,73.9866 51.4658,78.32 49.5,82.5C 47.9925,84.1815 46.9925,86.1815 46.5,88.5C 45.3871,87.0536 45.2204,85.3869 46,83.5C 47.8099,79.207 49.6432,74.8736 51.5,70.5C 50.2713,69.7189 48.938,69.2189 47.5,69C 48.8678,67.6598 50.2011,66.3264 51.5,65C 51.3865,63.7202 50.7199,62.8869 49.5,62.5C 48.0653,63.8237 47.0653,65.4904 46.5,67.5C 45.3777,66.3698 44.0443,65.7031 42.5,65.5C 42.6287,63.7839 42.962,62.1172 43.5,60.5C 45.369,58.9663 46.7023,56.9663 47.5,54.5C 48.9063,54.0269 49.573,53.0269 49.5,51.5C 51.5869,50.4154 52.9202,48.7488 53.5,46.5C 58.8595,41.4721 64.1929,36.4721 69.5,31.5C 72.7515,30.5462 75.4181,28.8796 77.5,26.5C 79.0269,26.573 80.0269,25.9063 80.5,24.5C 83.089,24.539 85.089,23.539 86.5,21.5C 87.9303,20.4625 89.597,19.7959 91.5,19.5 Z"/></g>
<g><path style="opacity:0.565" fill="#6d6d6d" d="M 177.5,26.5 C 179.882,27.3507 181.882,28.684 183.5,30.5C 180.733,30.1298 178.733,28.7964 177.5,26.5 Z"/></g>
<g><path style="opacity:0.404" fill="#808080" d="M 77.5,26.5 C 75.4181,28.8796 72.7515,30.5462 69.5,31.5C 71.6291,29.0499 74.2957,27.3833 77.5,26.5 Z"/></g>
<g><path style="opacity:1" fill="#7a7c80" d="M 135.5,27.5 C 165.533,31.3292 187.867,46.3292 202.5,72.5C 198.133,70.4553 195.133,67.122 193.5,62.5C 192.675,61.6143 191.675,61.281 190.5,61.5C 186.178,57.1842 181.511,53.1842 176.5,49.5C 154.746,32.6151 130.413,27.6151 103.5,34.5C 96.8167,36.3418 90.4833,39.0085 84.5,42.5C 78.8838,46.1153 73.5505,50.1153 68.5,54.5C 68.5,53.1667 68.5,51.8333 68.5,50.5C 74.177,45.3388 80.177,40.6721 86.5,36.5C 92.8177,34.0096 99.151,31.5096 105.5,29C 115.455,27.7048 125.455,27.2048 135.5,27.5 Z"/></g>
<g><path style="opacity:0.263" fill="#7e7e7e" d="M 183.5,30.5 C 185.23,31.0256 186.564,32.0256 187.5,33.5C 185.368,33.4456 184.035,32.4456 183.5,30.5 Z"/></g>
<g><path style="opacity:0.373" fill="#6a6a69" d="M 69.5,31.5 C 64.1929,36.4721 58.8595,41.4721 53.5,46.5C 57.5485,40.1178 62.8818,35.1178 69.5,31.5 Z"/></g>
<g><path style="opacity:1" fill="#1d3948" d="M 147.5,37.5 C 134.89,35.3358 122.223,35.0025 109.5,36.5C 105.187,37.3305 100.853,38.1638 96.5,39C 93.1955,40.8731 89.6955,42.3731 86,43.5C 85.2352,43.4301 84.7352,43.0967 84.5,42.5C 90.4833,39.0085 96.8167,36.3418 103.5,34.5C 102.15,35.6499 102.316,36.3166 104,36.5C 114.351,33.8415 124.851,33.0082 135.5,34C 139.758,34.756 143.758,35.9227 147.5,37.5 Z"/></g>
<g><path style="opacity:0.2" fill="#6a6865" d="M 187.5,33.5 C 189.23,34.0256 190.564,35.0256 191.5,36.5C 189.368,36.4456 188.035,35.4456 187.5,33.5 Z"/></g>
<g><path style="opacity:1" fill="#0e212c" d="M 176.5,49.5 C 176.5,50.1667 176.167,50.5 175.5,50.5C 169.423,47.2893 163.423,43.7893 157.5,40C 154.28,38.6476 150.947,37.8143 147.5,37.5C 143.758,35.9227 139.758,34.756 135.5,34C 124.851,33.0082 114.351,33.8415 104,36.5C 102.316,36.3166 102.15,35.6499 103.5,34.5C 130.413,27.6151 154.746,32.6151 176.5,49.5 Z"/></g>
<g><path style="opacity:0.337" fill="#797979" d="M 191.5,36.5 C 193.167,37.5 194.5,38.8333 195.5,40.5C 193.167,40.1667 191.833,38.8333 191.5,36.5 Z"/></g>
<g><path style="opacity:1" fill="#348096" d="M 147.5,37.5 C 150.947,37.8143 154.28,38.6476 157.5,40C 163.423,43.7893 169.423,47.2893 175.5,50.5C 176.894,52.7082 178.894,54.2082 181.5,55C 184.094,57.0865 186.094,59.5865 187.5,62.5C 186.897,64.1897 185.897,65.6897 184.5,67C 186.765,74.2809 187.765,81.7809 187.5,89.5C 186.883,89.6107 186.383,89.944 186,90.5C 185.136,87.3357 183.636,84.669 181.5,82.5C 182.695,82.1344 183.361,81.301 183.5,80C 180.814,72.383 177.314,65.2163 173,58.5C 169.201,56.7843 166.701,53.4509 165.5,48.5C 159.944,46.7957 154.444,45.129 149,43.5C 148.25,44.1258 147.416,44.6258 146.5,45C 147.833,45.6667 147.833,46.3333 146.5,47C 145.216,47.6838 144.049,47.5171 143,46.5C 142,47.1667 141,47.8333 140,48.5C 138.267,46.3826 136.1,44.8826 133.5,44C 119.495,41.0069 105.495,40.8403 91.5,43.5C 97.0697,41.7341 102.736,39.9008 108.5,38C 109.056,37.6174 109.389,37.1174 109.5,36.5C 122.223,35.0025 134.89,35.3358 147.5,37.5 Z"/></g>
<g><path style="opacity:0.412" fill="#686868" d="M 197.5,42.5 C 200.573,44.5691 202.906,47.2358 204.5,50.5C 201.427,48.4309 199.094,45.7642 197.5,42.5 Z"/></g>
<g><path style="opacity:1" fill="#265d74" d="M 109.5,36.5 C 109.389,37.1174 109.056,37.6174 108.5,38C 102.736,39.9008 97.0697,41.7341 91.5,43.5C 89.1423,45.1286 86.4757,46.2952 83.5,47C 82.6195,47.7083 81.9528,48.5416 81.5,49.5C 79.3453,49.372 77.3453,49.872 75.5,51C 71.9008,53.9517 68.5675,57.1184 65.5,60.5C 64.6618,60.1583 64.3284,59.4916 64.5,58.5C 65.8333,57.1667 67.1667,55.8333 68.5,54.5C 73.5505,50.1153 78.8838,46.1153 84.5,42.5C 84.7352,43.0967 85.2352,43.4301 86,43.5C 89.6955,42.3731 93.1955,40.8731 96.5,39C 100.853,38.1638 105.187,37.3305 109.5,36.5 Z"/></g>
<g><path style="opacity:1" fill="#39cae0" d="M 136.5,49.5 C 135.851,50.6063 135.517,51.6063 135.5,52.5C 134.5,51.1667 133.5,51.1667 132.5,52.5C 126.792,48.2119 124.458,49.8785 125.5,57.5C 120.821,57.6658 116.155,57.4992 111.5,57C 112.308,56.6924 112.975,56.1924 113.5,55.5C 111.004,53.6026 108.837,53.6026 107,55.5C 104.276,54.162 103.109,55.162 103.5,58.5C 99.4862,58.3345 95.4862,58.5012 91.5,59C 87.4933,62.1584 84.4933,65.9918 82.5,70.5C 79.9205,69.7724 77.2538,69.2724 74.5,69C 74.2387,66.3693 72.9054,63.8693 70.5,61.5C 71.3482,59.7172 72.6815,59.2172 74.5,60C 75.2489,61.7337 75.7489,63.567 76,65.5C 78.166,63.8787 80.666,63.0454 83.5,63C 85.1742,61.4941 86.1742,59.6607 86.5,57.5C 84.4176,57.472 82.5843,58.1387 81,59.5C 78.3464,57.1246 78.5131,54.6246 81.5,52C 82.1667,51.8333 82.8333,51.6667 83.5,51.5C 89.3714,55.6332 90.7048,54.2999 87.5,47.5C 94.552,44.4064 102.052,43.0731 110,43.5C 119.437,43.0197 128.27,45.0197 136.5,49.5 Z"/></g>
<g><path style="opacity:1" fill="#3493a8" d="M 181.5,82.5 C 180.609,83.1098 179.609,83.4431 178.5,83.5C 177.683,80.3815 176.683,77.3815 175.5,74.5C 174.178,74.67 173.011,74.3366 172,73.5C 171.108,70.0482 169.442,67.0482 167,64.5C 165.951,66.1066 164.451,66.7733 162.5,66.5C 162.66,64.8008 162.494,63.1341 162,61.5C 161.583,62.756 160.75,63.4226 159.5,63.5C 158.352,61.2576 157.352,58.9242 156.5,56.5C 155.818,57.2427 155.151,57.9094 154.5,58.5C 153.535,56.2441 151.868,54.5774 149.5,53.5C 145.188,51.9504 140.854,50.6171 136.5,49.5C 128.27,45.0197 119.437,43.0197 110,43.5C 102.052,43.0731 94.552,44.4064 87.5,47.5C 85.3146,47.7036 83.3146,48.3702 81.5,49.5C 81.9528,48.5416 82.6195,47.7083 83.5,47C 86.4757,46.2952 89.1423,45.1286 91.5,43.5C 105.495,40.8403 119.495,41.0069 133.5,44C 136.1,44.8826 138.267,46.3826 140,48.5C 141,47.8333 142,47.1667 143,46.5C 144.049,47.5171 145.216,47.6838 146.5,47C 147.833,46.3333 147.833,45.6667 146.5,45C 147.416,44.6258 148.25,44.1258 149,43.5C 154.444,45.129 159.944,46.7957 165.5,48.5C 166.701,53.4509 169.201,56.7843 173,58.5C 177.314,65.2163 180.814,72.383 183.5,80C 183.361,81.301 182.695,82.1344 181.5,82.5 Z"/></g>
<g><path style="opacity:0.004" fill="#000000" d="M 15.5,47.5 C 16.8333,48.1667 16.8333,48.1667 15.5,47.5 Z"/></g>
<g><path style="opacity:0.255" fill="#676767" d="M 53.5,46.5 C 52.9202,48.7488 51.5869,50.4154 49.5,51.5C 50.0798,49.2512 51.4131,47.5846 53.5,46.5 Z"/></g>
<g><path style="opacity:1" fill="#44c5db" d="M 136.5,49.5 C 140.854,50.6171 145.188,51.9504 149.5,53.5C 151.868,54.5774 153.535,56.2441 154.5,58.5C 153.979,62.4809 153.646,66.4809 153.5,70.5C 150.309,70.2378 147.642,68.9045 145.5,66.5C 145.167,66.8333 144.833,67.1667 144.5,67.5C 150.177,73.4827 148.51,75.9827 139.5,75C 142.659,75.8587 145.659,77.0254 148.5,78.5C 147.478,80.8552 145.812,82.5218 143.5,83.5C 143.062,83.5654 142.728,83.3988 142.5,83C 143.313,81.6861 144.313,80.5195 145.5,79.5C 144.675,78.6143 143.675,78.281 142.5,78.5C 140.745,77.2082 138.745,76.2082 136.5,75.5C 136.167,74.8333 135.833,74.1667 135.5,73.5C 140.721,72.3756 140.721,71.5423 135.5,71C 136.333,70.8333 137.167,70.6667 138,70.5C 139.842,72.1605 142.009,73.1605 144.5,73.5C 144.415,71.0712 143.415,69.0712 141.5,67.5C 142.167,66.8333 142.833,66.1667 143.5,65.5C 142.603,65.3309 141.603,64.9976 140.5,64.5C 143.064,62.6841 143.064,60.8508 140.5,59C 138.5,58.3333 136.5,58.3333 134.5,59C 132.44,60.6965 130.107,61.8631 127.5,62.5C 121.848,61.4597 116.182,61.4597 110.5,62.5C 110.911,67.3384 111.578,72.0051 112.5,76.5C 112.665,80.1817 112.499,83.8484 112,87.5C 111.623,88.9423 110.79,89.9423 109.5,90.5C 110.574,87.6074 111.24,84.6074 111.5,81.5C 110.171,74.8738 109.004,68.2071 108,61.5C 102.554,60.1941 97.0538,60.1941 91.5,61.5C 91.1373,62.1835 90.8039,62.8501 90.5,63.5C 87.3527,66.4683 84.686,69.8017 82.5,73.5C 82.5,72.8333 82.1667,72.5 81.5,72.5C 81.8333,71.8333 82.1667,71.1667 82.5,70.5C 84.4933,65.9918 87.4933,62.1584 91.5,59C 95.4862,58.5012 99.4862,58.3345 103.5,58.5C 103.109,55.162 104.276,54.162 107,55.5C 108.837,53.6026 111.004,53.6026 113.5,55.5C 112.975,56.1924 112.308,56.6924 111.5,57C 116.155,57.4992 120.821,57.6658 125.5,57.5C 124.458,49.8785 126.792,48.2119 132.5,52.5C 133.5,51.1667 134.5,51.1667 135.5,52.5C 135.517,51.6063 135.851,50.6063 136.5,49.5 Z"/></g>
<g><path style="opacity:0.204" fill="#686a66" d="M 204.5,50.5 C 206.262,51.2623 207.262,52.5956 207.5,54.5C 205.738,53.7377 204.738,52.4044 204.5,50.5 Z"/></g>
<g><path style="opacity:0.212" fill="#6f716f" d="M 49.5,51.5 C 49.573,53.0269 48.9063,54.0269 47.5,54.5C 47.427,52.9731 48.0937,51.9731 49.5,51.5 Z"/></g>
<g><path style="opacity:0.004" fill="#000000" d="M 258.5,53.5 C 259.833,54.1667 259.833,54.1667 258.5,53.5 Z"/></g>
<g><path style="opacity:1" fill="#abbac3" d="M 68.5,50.5 C 68.5,51.8333 68.5,53.1667 68.5,54.5C 67.1667,55.8333 65.8333,57.1667 64.5,58.5C 63.8333,58.8333 63.1667,59.1667 62.5,59.5C 61.9569,59.44 61.6236,59.1067 61.5,58.5C 63.1398,55.1956 65.4731,52.529 68.5,50.5 Z"/></g>
<g><path style="opacity:0.188" fill="#696969" d="M 207.5,54.5 C 208.906,54.9731 209.573,55.9731 209.5,57.5C 208.094,57.0269 207.427,56.0269 207.5,54.5 Z"/></g>
<g><path style="opacity:0.753" fill="#938f8e" d="M 47.5,54.5 C 46.7023,56.9663 45.369,58.9663 43.5,60.5C 43.8449,57.8021 45.1782,55.8021 47.5,54.5 Z"/></g>
<g><path style="opacity:0.157" fill="#5a5a5a" d="M 209.5,57.5 C 210.906,57.9731 211.573,58.9731 211.5,60.5C 210.094,60.0269 209.427,59.0269 209.5,57.5 Z"/></g>
<g><path style="opacity:1" fill="#787e85" d="M 190.5,61.5 C 191.675,61.281 192.675,61.6143 193.5,62.5C 195.133,67.122 198.133,70.4553 202.5,72.5C 204.449,77.3418 206.783,82.0085 209.5,86.5C 209.344,90.7643 210.011,94.7643 211.5,98.5C 213.005,108.246 212.671,117.913 210.5,127.5C 208.508,133.757 206.341,140.091 204,146.5C 200.904,150.355 198.57,154.688 197,159.5C 195.961,160.71 194.794,161.71 193.5,162.5C 196.072,158.248 197.738,153.582 198.5,148.5C 203.169,142.836 205.502,136.169 205.5,128.5C 210.76,103.873 205.76,81.5396 190.5,61.5 Z"/></g>
<g><path style="opacity:0.859" fill="#979797" d="M 211.5,60.5 C 213.25,61.6594 214.25,63.326 214.5,65.5C 211.916,64.9517 210.916,63.285 211.5,60.5 Z"/></g>
<g><path style="opacity:0.773" fill="#929292" d="M 43.5,60.5 C 42.962,62.1172 42.6287,63.7839 42.5,65.5C 41.8333,65.5 41.1667,65.5 40.5,65.5C 40.7497,63.326 41.7497,61.6594 43.5,60.5 Z"/></g>
<g><path style="opacity:0.999" fill="#e3e4e5" d="M 46.5,88.5 C 43.3738,102.358 42.7071,116.358 44.5,130.5C 43.1127,128.123 42.2794,125.457 42,122.5C 41.6667,115.833 41.3333,109.167 41,102.5C 40.0766,103.759 39.2432,105.092 38.5,106.5C 37.1166,103.924 36.2833,104.258 36,107.5C 35.3333,108.833 34.6667,108.833 34,107.5C 33.2715,101.138 34.1049,94.9709 36.5,89C 35.7714,85.715 35.4381,82.5483 35.5,79.5C 36.7496,76.994 37.4162,74.3274 37.5,71.5C 37.9925,69.1815 38.9925,67.1815 40.5,65.5C 41.1667,65.5 41.8333,65.5 42.5,65.5C 44.0443,65.7031 45.3777,66.3698 46.5,67.5C 47.0653,65.4904 48.0653,63.8237 49.5,62.5C 50.7199,62.8869 51.3865,63.7202 51.5,65C 50.2011,66.3264 48.8678,67.6598 47.5,69C 48.938,69.2189 50.2713,69.7189 51.5,70.5C 49.6432,74.8736 47.8099,79.207 46,83.5C 45.2204,85.3869 45.3871,87.0536 46.5,88.5 Z"/></g>
<g><path style="opacity:1" fill="#eceff1" d="M 104.5,101.5 C 107.363,108.559 111.697,114.559 117.5,119.5C 117.427,121.027 118.094,122.027 119.5,122.5C 119.392,124.514 120.058,126.18 121.5,127.5C 119.857,127.52 118.524,126.853 117.5,125.5C 116.636,127.197 115.303,128.363 113.5,129C 114.833,129.333 116.167,129.667 117.5,130C 117.943,131.518 117.276,132.685 115.5,133.5C 116.167,133.833 116.833,134.167 117.5,134.5C 120.131,133.447 122.798,132.947 125.5,133C 122.211,134.41 120.544,136.91 120.5,140.5C 122.167,140.5 123.833,140.5 125.5,140.5C 124.823,134.342 126.156,133.842 129.5,139C 129.095,139.945 128.428,140.612 127.5,141C 128.71,142.039 129.71,143.206 130.5,144.5C 127.763,144.599 125.096,144.265 122.5,143.5C 119.205,141.859 116.205,139.859 113.5,137.5C 109.473,134.14 105.806,130.473 102.5,126.5C 93.4023,115.626 86.4023,103.626 81.5,90.5C 80.7564,86.8815 80.423,83.2148 80.5,79.5C 80.9707,77.4214 81.6373,75.4214 82.5,73.5C 84.686,69.8017 87.3527,66.4683 90.5,63.5C 93.8354,62.1481 97.3354,61.4814 101,61.5C 103.302,61.6004 105.302,62.267 107,63.5C 107.975,70.1677 108.809,76.8343 109.5,83.5C 108.178,87.4768 106.345,91.1435 104,94.5C 103.204,97.0385 103.371,99.3718 104.5,101.5 Z"/></g>
<g><path style="opacity:1" fill="#1bbddf" d="M 87.5,47.5 C 90.7048,54.2999 89.3714,55.6332 83.5,51.5C 82.8333,51.6667 82.1667,51.8333 81.5,52C 78.5131,54.6246 78.3464,57.1246 81,59.5C 82.5843,58.1387 84.4176,57.472 86.5,57.5C 86.1742,59.6607 85.1742,61.4941 83.5,63C 80.666,63.0454 78.166,63.8787 76,65.5C 75.7489,63.567 75.2489,61.7337 74.5,60C 72.6815,59.2172 71.3482,59.7172 70.5,61.5C 72.9054,63.8693 74.2387,66.3693 74.5,69C 77.2538,69.2724 79.9205,69.7724 82.5,70.5C 82.1667,71.1667 81.8333,71.8333 81.5,72.5C 80.7784,72.0825 80.2784,71.4158 80,70.5C 77.0379,73.6342 74.3713,76.9675 72,80.5C 71.6322,79.09 70.7989,78.09 69.5,77.5C 66.7537,80.2382 64.4203,83.2382 62.5,86.5C 60.6523,83.5215 58.6523,83.1882 56.5,85.5C 55.4756,84.1482 54.4756,82.8149 53.5,81.5C 55.6417,73.3755 59.6417,66.3755 65.5,60.5C 68.5675,57.1184 71.9008,53.9517 75.5,51C 77.3453,49.872 79.3453,49.372 81.5,49.5C 83.3146,48.3702 85.3146,47.7036 87.5,47.5 Z"/></g>
<g><path style="opacity:1" fill="#29c4e0" d="M 142.5,78.5 C 138.458,80.4769 134.458,79.9769 130.5,77C 131.167,76.6667 131.833,76.3333 132.5,76C 129.139,74.87 125.806,74.7033 122.5,75.5C 122.039,70.7698 120.372,69.9364 117.5,73C 117.945,75.9344 118.612,79.1011 119.5,82.5C 119.523,84.0666 119.023,85.3999 118,86.5C 116.28,82.2533 114.78,78.5866 113.5,75.5C 112.833,75.5 112.5,75.8333 112.5,76.5C 111.578,72.0051 110.911,67.3384 110.5,62.5C 116.182,61.4597 121.848,61.4597 127.5,62.5C 130.107,61.8631 132.44,60.6965 134.5,59C 136.5,58.3333 138.5,58.3333 140.5,59C 143.064,60.8508 143.064,62.6841 140.5,64.5C 141.603,64.9976 142.603,65.3309 143.5,65.5C 142.833,66.1667 142.167,66.8333 141.5,67.5C 143.415,69.0712 144.415,71.0712 144.5,73.5C 142.009,73.1605 139.842,72.1605 138,70.5C 137.167,70.6667 136.333,70.8333 135.5,71C 140.721,71.5423 140.721,72.3756 135.5,73.5C 135.833,74.1667 136.167,74.8333 136.5,75.5C 138.745,76.2082 140.745,77.2082 142.5,78.5 Z"/></g>
<g><path style="opacity:1" fill="#eafcfb" d="M 159.5,63.5 C 160.484,66.8119 161.484,70.1452 162.5,73.5C 166.213,76.8838 169.879,80.2171 173.5,83.5C 175.212,85.8957 175.712,88.5624 175,91.5C 172.36,90.3442 169.86,89.0109 167.5,87.5C 165.847,87.3404 164.514,86.6737 163.5,85.5C 162.538,82.7396 160.538,81.4062 157.5,81.5C 154.824,81.837 152.157,82.1703 149.5,82.5C 149.335,79.4816 149.502,76.4816 150,73.5C 150.985,72.1859 152.152,71.1859 153.5,70.5C 153.646,66.4809 153.979,62.4809 154.5,58.5C 155.151,57.9094 155.818,57.2427 156.5,56.5C 157.352,58.9242 158.352,61.2576 159.5,63.5 Z"/></g>
<g><path style="opacity:1" fill="#34b2c6" d="M 178.5,83.5 C 177.833,84.1667 177.167,84.8333 176.5,85.5C 175.5,84.8333 174.5,84.1667 173.5,83.5C 169.879,80.2171 166.213,76.8838 162.5,73.5C 161.484,70.1452 160.484,66.8119 159.5,63.5C 160.75,63.4226 161.583,62.756 162,61.5C 162.494,63.1341 162.66,64.8008 162.5,66.5C 164.451,66.7733 165.951,66.1066 167,64.5C 169.442,67.0482 171.108,70.0482 172,73.5C 173.011,74.3366 174.178,74.67 175.5,74.5C 176.683,77.3815 177.683,80.3815 178.5,83.5 Z"/></g>
<g><path style="opacity:0.776" fill="#828282" d="M 37.5,71.5 C 37.4162,74.3274 36.7496,76.994 35.5,79.5C 34.8333,79.8333 34.1667,80.1667 33.5,80.5C 34.0749,77.0884 35.4082,74.0884 37.5,71.5 Z"/></g>
<g><path style="opacity:1" fill="#d0f7fa" d="M 109.5,90.5 C 107.742,92.1407 106.242,94.1407 105,96.5C 104.506,98.1341 104.34,99.8008 104.5,101.5C 103.371,99.3718 103.204,97.0385 104,94.5C 106.345,91.1435 108.178,87.4768 109.5,83.5C 108.809,76.8343 107.975,70.1677 107,63.5C 105.302,62.267 103.302,61.6004 101,61.5C 97.3354,61.4814 93.8354,62.1481 90.5,63.5C 90.8039,62.8501 91.1373,62.1835 91.5,61.5C 97.0538,60.1941 102.554,60.1941 108,61.5C 109.004,68.2071 110.171,74.8738 111.5,81.5C 111.24,84.6074 110.574,87.6074 109.5,90.5 Z"/></g>
<g><path style="opacity:0.525" fill="#626262" d="M 218.5,73.5 C 221.14,78.085 222.806,83.085 223.5,88.5C 222.359,85.7458 221.025,83.0791 219.5,80.5C 219.007,78.1944 218.674,75.861 218.5,73.5 Z"/></g>
<g><path style="opacity:1" fill="#357495" d="M 187.5,62.5 C 190.917,64.592 193.25,67.592 194.5,71.5C 195.359,75.2742 196.359,78.9408 197.5,82.5C 196.167,82.5 194.833,82.5 193.5,82.5C 193.5,84.5 193.5,86.5 193.5,88.5C 193.303,94.5451 193.637,100.545 194.5,106.5C 195.02,110.347 195.02,114.347 194.5,118.5C 193.394,112.738 191.727,107.071 189.5,101.5C 189.152,97.4432 188.486,93.4432 187.5,89.5C 187.765,81.7809 186.765,74.2809 184.5,67C 185.897,65.6897 186.897,64.1897 187.5,62.5 Z"/></g>
<g><path style="opacity:1" fill="#c6f8f9" d="M 153.5,70.5 C 152.152,71.1859 150.985,72.1859 150,73.5C 149.502,76.4816 149.335,79.4816 149.5,82.5C 152.157,82.1703 154.824,81.837 157.5,81.5C 160.538,81.4062 162.538,82.7396 163.5,85.5C 161.608,84.149 159.442,83.4823 157,83.5C 153.688,84.0743 150.522,85.0743 147.5,86.5C 145.742,86.8769 144.075,87.5435 142.5,88.5C 142.167,88.1667 141.833,87.8333 141.5,87.5C 142.63,86.3777 143.297,85.0443 143.5,83.5C 145.812,82.5218 147.478,80.8552 148.5,78.5C 145.659,77.0254 142.659,75.8587 139.5,75C 148.51,75.9827 150.177,73.4827 144.5,67.5C 144.833,67.1667 145.167,66.8333 145.5,66.5C 147.642,68.9045 150.309,70.2378 153.5,70.5 Z"/></g>
<g><path style="opacity:1" fill="#386581" d="M 194.5,71.5 C 197.459,75.8356 199.959,80.5022 202,85.5C 202.662,87.8127 203.162,90.146 203.5,92.5C 201.952,92.8212 201.285,93.8212 201.5,95.5C 199.141,93.6344 197.308,91.3011 196,88.5C 195.667,90.1667 195.333,91.8333 195,93.5C 194.802,91.6183 194.302,89.9516 193.5,88.5C 193.5,86.5 193.5,84.5 193.5,82.5C 194.833,82.5 196.167,82.5 197.5,82.5C 196.359,78.9408 195.359,75.2742 194.5,71.5 Z"/></g>
<g><path style="opacity:1" fill="#f2f2f2" d="M 219.5,80.5 C 221.025,83.0791 222.359,85.7458 223.5,88.5C 223.28,93.1 223.946,97.4333 225.5,101.5C 226.29,108.471 226.623,115.471 226.5,122.5C 225.678,124.389 224.845,126.389 224,128.5C 223.667,119.5 223.333,110.5 223,101.5C 222.667,107.5 222.333,113.5 222,119.5C 221.764,116.792 220.931,114.292 219.5,112C 220.885,110.403 221.551,108.57 221.5,106.5C 220.325,106.281 219.325,106.614 218.5,107.5C 217.94,109.854 217.273,112.187 216.5,114.5C 215.408,108.742 213.741,103.408 211.5,98.5C 210.011,94.7643 209.344,90.7643 209.5,86.5C 209.435,86.0618 209.601,85.7284 210,85.5C 210.333,86.1667 210.667,86.8333 211,87.5C 211.237,84.265 210.737,81.0983 209.5,78C 209.833,77.5 210.167,77 210.5,76.5C 211.298,78.0777 211.798,79.7444 212,81.5C 212.118,78.6287 212.784,75.962 214,73.5C 215.017,75.3759 215.851,77.3759 216.5,79.5C 217.417,80.1272 218.417,80.4606 219.5,80.5 Z"/></g>
<g><path style="opacity:0.416" fill="#686868" d="M 32.5,84.5 C 32.7406,86.8984 32.0739,88.8984 30.5,90.5C 30.595,88.2143 31.2616,86.2143 32.5,84.5 Z"/></g>
<g><path style="opacity:1" fill="#50b1ca" d="M 64.5,58.5 C 64.3284,59.4916 64.6618,60.1583 65.5,60.5C 59.6417,66.3755 55.6417,73.3755 53.5,81.5C 51.7629,84.008 50.9296,87.008 51,90.5C 50.059,92.7274 48.8923,94.7274 47.5,96.5C 47.3517,91.6812 48.0184,87.0145 49.5,82.5C 51.4658,78.32 53.2992,73.9866 55,69.5C 57.2744,65.9296 59.7744,62.5963 62.5,59.5C 63.1667,59.1667 63.8333,58.8333 64.5,58.5 Z"/></g>
<g><path style="opacity:1" fill="#3eabc5" d="M 163.5,85.5 C 164.514,86.6737 165.847,87.3404 167.5,87.5C 171.535,91.9397 175.702,96.273 180,100.5C 181.322,103.965 182.822,107.298 184.5,110.5C 183.504,110.586 182.671,110.252 182,109.5C 181.529,107.754 180.862,106.087 180,104.5C 177.223,103.229 175.389,101.229 174.5,98.5C 171.174,92.4799 166.174,88.3133 159.5,86C 155.391,86.0864 151.391,86.9197 147.5,88.5C 147.5,87.8333 147.5,87.1667 147.5,86.5C 150.522,85.0743 153.688,84.0743 157,83.5C 159.442,83.4823 161.608,84.149 163.5,85.5 Z"/></g>
<g><path style="opacity:1" fill="#598cb6" d="M 80.5,79.5 C 80.423,83.2148 80.7564,86.8815 81.5,90.5C 81.5,91.5 81.5,92.5 81.5,93.5C 80.8826,93.3893 80.3826,93.056 80,92.5C 79.502,95.4816 79.3354,98.4816 79.5,101.5C 76.5399,93.9842 76.8733,86.6508 80.5,79.5 Z"/></g>
<g><path style="opacity:1" fill="#0ab2de" d="M 174.5,98.5 C 173.566,99.5676 173.232,100.901 173.5,102.5C 162.833,102.5 152.167,102.5 141.5,102.5C 141.483,100.435 141.15,98.4352 140.5,96.5C 141.309,94.7078 141.809,92.7078 142,90.5C 143.948,89.8906 145.782,89.224 147.5,88.5C 151.391,86.9197 155.391,86.0864 159.5,86C 166.174,88.3133 171.174,92.4799 174.5,98.5 Z"/></g>
<g><path style="opacity:1" fill="#13b8df" d="M 142.5,78.5 C 143.675,78.281 144.675,78.6143 145.5,79.5C 144.313,80.5195 143.313,81.6861 142.5,83C 142.728,83.3988 143.062,83.5654 143.5,83.5C 143.297,85.0443 142.63,86.3777 141.5,87.5C 141.833,87.8333 142.167,88.1667 142.5,88.5C 144.075,87.5435 145.742,86.8769 147.5,86.5C 147.5,87.1667 147.5,87.8333 147.5,88.5C 145.782,89.224 143.948,89.8906 142,90.5C 141.809,92.7078 141.309,94.7078 140.5,96.5C 137.71,94.2687 135.377,91.602 133.5,88.5C 131.697,89.1368 130.364,90.3035 129.5,92C 128.216,92.6838 127.049,92.5171 126,91.5C 125.667,92.1667 125.333,92.8333 125,93.5C 123.692,90.2698 122.692,86.9364 122,83.5C 122.877,89.6365 120.544,91.6365 115,89.5C 114.197,92.2442 113.197,94.9109 112,97.5C 110.989,96.6634 109.822,96.33 108.5,96.5C 109.793,94.7041 111.293,93.0375 113,91.5C 113.499,86.1771 113.666,80.8437 113.5,75.5C 114.78,78.5866 116.28,82.2533 118,86.5C 119.023,85.3999 119.523,84.0666 119.5,82.5C 118.612,79.1011 117.945,75.9344 117.5,73C 120.372,69.9364 122.039,70.7698 122.5,75.5C 125.806,74.7033 129.139,74.87 132.5,76C 131.833,76.3333 131.167,76.6667 130.5,77C 134.458,79.9769 138.458,80.4769 142.5,78.5 Z"/></g>
<g><path style="opacity:1" fill="#1f3968" d="M 81.5,72.5 C 82.1667,72.5 82.5,72.8333 82.5,73.5C 81.6373,75.4214 80.9707,77.4214 80.5,79.5C 76.8733,86.6508 76.5399,93.9842 79.5,101.5C 81.5,105.833 83.5,110.167 85.5,114.5C 83.4339,112.909 81.1006,111.575 78.5,110.5C 77.6816,107.893 77.1816,105.226 77,102.5C 75.7421,100.236 74.5754,97.9023 73.5,95.5C 72.5748,96.3569 71.9081,97.3569 71.5,98.5C 70.1667,98.5 68.8333,98.5 67.5,98.5C 67.5,97.5 67.5,96.5 67.5,95.5C 68.7412,90.7583 70.7412,86.425 73.5,82.5C 76.1558,79.2059 78.8225,75.8726 81.5,72.5 Z"/></g>
<g><path style="opacity:1" fill="#13abdb" d="M 81.5,72.5 C 78.8225,75.8726 76.1558,79.2059 73.5,82.5C 71.1223,84.8785 69.1223,87.5451 67.5,90.5C 64.2545,92.3133 61.4211,94.6466 59,97.5C 58.2331,102.932 55.2331,104.932 50,103.5C 48.4912,106.946 46.9912,110.28 45.5,113.5C 45.0418,107.613 45.7085,101.946 47.5,96.5C 48.8923,94.7274 50.059,92.7274 51,90.5C 50.9296,87.008 51.7629,84.008 53.5,81.5C 54.4756,82.8149 55.4756,84.1482 56.5,85.5C 58.6523,83.1882 60.6523,83.5215 62.5,86.5C 64.4203,83.2382 66.7537,80.2382 69.5,77.5C 70.7989,78.09 71.6322,79.09 72,80.5C 74.3713,76.9675 77.0379,73.6342 80,70.5C 80.2784,71.4158 80.7784,72.0825 81.5,72.5 Z"/></g>
<g><path style="opacity:1" fill="#cdf8fb" d="M 173.5,83.5 C 174.5,84.1667 175.5,84.8333 176.5,85.5C 181.765,93.7121 185.098,102.712 186.5,112.5C 186.631,113.239 186.464,113.906 186,114.5C 185.59,113.099 185.09,111.766 184.5,110.5C 182.822,107.298 181.322,103.965 180,100.5C 175.702,96.273 171.535,91.9397 167.5,87.5C 169.86,89.0109 172.36,90.3442 175,91.5C 175.712,88.5624 175.212,85.8957 173.5,83.5 Z"/></g>
<g><path style="opacity:0.843" fill="#999999" d="M 223.5,88.5 C 224.768,90.9052 225.435,93.5718 225.5,96.5C 225.5,98.1667 225.5,99.8333 225.5,101.5C 223.946,97.4333 223.28,93.1 223.5,88.5 Z"/></g>
<g><path style="opacity:1" fill="#253949" d="M 176.5,49.5 C 181.511,53.1842 186.178,57.1842 190.5,61.5C 205.76,81.5396 210.76,103.873 205.5,128.5C 207.357,116.294 206.69,104.294 203.5,92.5C 203.162,90.146 202.662,87.8127 202,85.5C 199.959,80.5022 197.459,75.8356 194.5,71.5C 193.25,67.592 190.917,64.592 187.5,62.5C 186.094,59.5865 184.094,57.0865 181.5,55C 178.894,54.2082 176.894,52.7082 175.5,50.5C 176.167,50.5 176.5,50.1667 176.5,49.5 Z"/></g>
<g><path style="opacity:0.996" fill="#dadbdc" d="M 35.5,79.5 C 35.4381,82.5483 35.7714,85.715 36.5,89C 34.1049,94.9709 33.2715,101.138 34,107.5C 34.6667,108.833 35.3333,108.833 36,107.5C 36.2833,104.258 37.1166,103.924 38.5,106.5C 39.2432,105.092 40.0766,103.759 41,102.5C 41.3333,109.167 41.6667,115.833 42,122.5C 42.2794,125.457 43.1127,128.123 44.5,130.5C 45.3844,133.023 46.2177,135.69 47,138.5C 47.3768,139.942 48.2101,140.942 49.5,141.5C 49.9321,142.71 50.5987,143.71 51.5,144.5C 52.7576,147.694 53.4242,151.027 53.5,154.5C 51.9256,154.063 50.7589,153.063 50,151.5C 48.1521,145.772 46.1521,140.106 44,134.5C 42.2866,133.122 40.9533,131.455 40,129.5C 38.6667,130.167 37.6667,131.167 37,132.5C 35.4958,124.515 33.1625,116.848 30,109.5C 29.501,105.179 29.3343,100.846 29.5,96.5C 29.3253,94.3792 29.6586,92.3792 30.5,90.5C 32.0739,88.8984 32.7406,86.8984 32.5,84.5C 32.2322,82.901 32.5655,81.5676 33.5,80.5C 34.1667,80.1667 34.8333,79.8333 35.5,79.5 Z"/></g>
<g><path style="opacity:1" fill="#08abdc" d="M 140.5,96.5 C 141.15,98.4352 141.483,100.435 141.5,102.5C 152.167,102.5 162.833,102.5 173.5,102.5C 173.232,100.901 173.566,99.5676 174.5,98.5C 175.389,101.229 177.223,103.229 180,104.5C 180.862,106.087 181.529,107.754 182,109.5C 182.671,110.252 183.504,110.586 184.5,110.5C 185.09,111.766 185.59,113.099 186,114.5C 186.464,113.906 186.631,113.239 186.5,112.5C 187.404,113.209 187.737,114.209 187.5,115.5C 187.349,118.718 186.516,119.051 185,116.5C 184.187,118.436 183.687,120.436 183.5,122.5C 182.596,121.791 182.263,120.791 182.5,119.5C 179.235,118.693 176.068,118.693 173,119.5C 173.019,117.893 173.185,116.226 173.5,114.5C 167.367,115.01 166.7,116.51 171.5,119C 169.085,118.681 166.751,118.514 164.5,118.5C 163.428,116.429 161.761,115.095 159.5,114.5C 157.572,115.767 155.739,116.434 154,116.5C 155.643,114.258 156.81,111.591 157.5,108.5C 149.357,108.985 141.357,108.318 133.5,106.5C 131.311,106.594 129.311,107.261 127.5,108.5C 124.874,107.42 122.374,107.754 120,109.5C 116.236,107.975 114.403,109.308 114.5,113.5C 113.596,112.791 113.263,111.791 113.5,110.5C 109.344,109.152 107.344,106.152 107.5,101.5C 107.728,99.7927 108.062,98.126 108.5,96.5C 109.822,96.33 110.989,96.6634 112,97.5C 113.197,94.9109 114.197,92.2442 115,89.5C 120.544,91.6365 122.877,89.6365 122,83.5C 122.692,86.9364 123.692,90.2698 125,93.5C 125.333,92.8333 125.667,92.1667 126,91.5C 127.049,92.5171 128.216,92.6838 129.5,92C 130.364,90.3035 131.697,89.1368 133.5,88.5C 135.377,91.602 137.71,94.2687 140.5,96.5 Z"/></g>
<g><path style="opacity:1" fill="#3291b4" d="M 181.5,82.5 C 183.636,84.669 185.136,87.3357 186,90.5C 186.383,89.944 186.883,89.6107 187.5,89.5C 188.486,93.4432 189.152,97.4432 189.5,101.5C 188.325,101.281 187.325,101.614 186.5,102.5C 187.191,105.815 188.191,108.981 189.5,112C 189.352,113.256 189.018,114.423 188.5,115.5C 188.167,115.5 187.833,115.5 187.5,115.5C 187.737,114.209 187.404,113.209 186.5,112.5C 185.098,102.712 181.765,93.7121 176.5,85.5C 177.167,84.8333 177.833,84.1667 178.5,83.5C 179.609,83.4431 180.609,83.1098 181.5,82.5 Z"/></g>
<g><path style="opacity:1" fill="#3fa8c7" d="M 113.5,75.5 C 113.666,80.8437 113.499,86.1771 113,91.5C 111.293,93.0375 109.793,94.7041 108.5,96.5C 108.062,98.126 107.728,99.7927 107.5,101.5C 107.344,106.152 109.344,109.152 113.5,110.5C 113.263,111.791 113.596,112.791 114.5,113.5C 115.694,114.272 116.694,115.272 117.5,116.5C 117.5,117.5 117.5,118.5 117.5,119.5C 111.697,114.559 107.363,108.559 104.5,101.5C 104.34,99.8008 104.506,98.1341 105,96.5C 106.242,94.1407 107.742,92.1407 109.5,90.5C 110.79,89.9423 111.623,88.9423 112,87.5C 112.499,83.8484 112.665,80.1817 112.5,76.5C 112.5,75.8333 112.833,75.5 113.5,75.5 Z"/></g>
<g><path style="opacity:1" fill="#ecebeb" d="M 211.5,98.5 C 213.741,103.408 215.408,108.742 216.5,114.5C 217.273,112.187 217.94,109.854 218.5,107.5C 219.325,106.614 220.325,106.281 221.5,106.5C 221.551,108.57 220.885,110.403 219.5,112C 220.931,114.292 221.764,116.792 222,119.5C 222.333,113.5 222.667,107.5 223,101.5C 223.333,110.5 223.667,119.5 224,128.5C 224.845,126.389 225.678,124.389 226.5,122.5C 226.721,125.279 226.388,127.946 225.5,130.5C 223.96,132.838 223.294,135.505 223.5,138.5C 222.262,140.214 221.595,142.214 221.5,144.5C 220.5,145.833 219.5,147.167 218.5,148.5C 217.559,145.875 216.393,145.875 215,148.5C 213.679,145.364 213.846,142.197 215.5,139C 211.812,136.121 210.146,132.287 210.5,127.5C 212.671,117.913 213.005,108.246 211.5,98.5 Z"/></g>
<g><path style="opacity:1" fill="#1968aa" d="M 73.5,82.5 C 70.7412,86.425 68.7412,90.7583 67.5,95.5C 65.9823,98.5341 65.1489,101.867 65,105.5C 64.5008,110.155 64.3342,114.821 64.5,119.5C 63.4903,124.035 63.3237,128.701 64,133.5C 62.9808,131.498 62.1475,129.498 61.5,127.5C 59.462,120.573 59.1286,113.573 60.5,106.5C 60.5,105.167 60.5,103.833 60.5,102.5C 61.7919,97.9193 64.1253,93.9193 67.5,90.5C 69.1223,87.5451 71.1223,84.8785 73.5,82.5 Z"/></g>
<g><path style="opacity:1" fill="#7fb3e2" d="M 81.5,93.5 C 83.6248,100.361 86.6248,106.861 90.5,113C 89.6443,114.595 88.3109,115.428 86.5,115.5C 86.5,114.833 86.1667,114.5 85.5,114.5C 83.5,110.167 81.5,105.833 79.5,101.5C 79.3354,98.4816 79.502,95.4816 80,92.5C 80.3826,93.056 80.8826,93.3893 81.5,93.5 Z"/></g>
<g><path style="opacity:0.004" fill="#000000" d="M 16.5,108.5 C 17.8333,109.167 17.8333,109.167 16.5,108.5 Z"/></g>
<g><path style="opacity:1" fill="#07a3da" d="M 164.5,118.5 C 160.919,118.485 157.252,118.318 153.5,118C 152.273,119.587 152.606,120.921 154.5,122C 153.5,122.167 152.5,122.333 151.5,122.5C 148.203,122.101 145.37,120.768 143,118.5C 140.536,119.161 138.036,119.661 135.5,120C 134.321,123.248 133.321,123.082 132.5,119.5C 134.478,119.262 136.145,117.929 137.5,115.5C 134.57,112.78 131.903,112.947 129.5,116C 128.207,116.49 126.873,116.657 125.5,116.5C 125.762,115.022 125.429,113.689 124.5,112.5C 122.487,113.969 120.82,115.636 119.5,117.5C 118.833,117.167 118.167,116.833 117.5,116.5C 116.694,115.272 115.694,114.272 114.5,113.5C 114.403,109.308 116.236,107.975 120,109.5C 122.374,107.754 124.874,107.42 127.5,108.5C 129.311,107.261 131.311,106.594 133.5,106.5C 141.357,108.318 149.357,108.985 157.5,108.5C 156.81,111.591 155.643,114.258 154,116.5C 155.739,116.434 157.572,115.767 159.5,114.5C 161.761,115.095 163.428,116.429 164.5,118.5 Z"/></g>
<g><path style="opacity:0.092" fill="#404040" d="M 225.5,96.5 C 227.535,105.118 227.868,113.784 226.5,122.5C 226.623,115.471 226.29,108.471 225.5,101.5C 225.5,99.8333 225.5,98.1667 225.5,96.5 Z"/></g>
<g><path style="opacity:1" fill="#3c4285" d="M 67.5,98.5 C 68.8333,98.5 70.1667,98.5 71.5,98.5C 73.4363,103.602 75.603,108.602 78,113.5C 78.6667,114.833 79.3333,114.833 80,113.5C 80.2359,115.811 81.0693,117.811 82.5,119.5C 82.6495,120.552 82.4828,121.552 82,122.5C 80.2518,120.865 79.0851,118.865 78.5,116.5C 72.555,112.774 69.555,114.441 69.5,121.5C 67.8028,114.07 67.1362,106.403 67.5,98.5 Z"/></g>
<g><path style="opacity:1" fill="#1594d2" d="M 67.5,90.5 C 64.1253,93.9193 61.7919,97.9193 60.5,102.5C 58.0431,105.955 56.8765,109.955 57,114.5C 55.853,116.731 54.853,119.065 54,121.5C 52.6667,118.833 51.3333,118.833 50,121.5C 49.127,129.36 49.9604,137.027 52.5,144.5C 52.1667,144.5 51.8333,144.5 51.5,144.5C 50.5987,143.71 49.9321,142.71 49.5,141.5C 47.2063,132.319 45.873,122.986 45.5,113.5C 46.9912,110.28 48.4912,106.946 50,103.5C 55.2331,104.932 58.2331,102.932 59,97.5C 61.4211,94.6466 64.2545,92.3133 67.5,90.5 Z"/></g>
<g><path style="opacity:1" fill="#2d326b" d="M 85.5,114.5 C 86.1667,114.5 86.5,114.833 86.5,115.5C 87.8333,117.833 89.1667,120.167 90.5,122.5C 89.2058,121.71 88.0391,120.71 87,119.5C 87.5948,121.35 88.0948,123.35 88.5,125.5C 86.5,123.5 84.5,121.5 82.5,119.5C 81.0693,117.811 80.2359,115.811 80,113.5C 79.3333,114.833 78.6667,114.833 78,113.5C 75.603,108.602 73.4363,103.602 71.5,98.5C 71.9081,97.3569 72.5748,96.3569 73.5,95.5C 74.5754,97.9023 75.7421,100.236 77,102.5C 77.1816,105.226 77.6816,107.893 78.5,110.5C 81.1006,111.575 83.4339,112.909 85.5,114.5 Z"/></g>
<g><path style="opacity:1" fill="#94afd4" d="M 81.5,90.5 C 86.4023,103.626 93.4023,115.626 102.5,126.5C 99.5637,124.902 96.8971,122.902 94.5,120.5C 93.2949,121.577 92.6282,122.91 92.5,124.5C 91.8333,123.833 91.1667,123.167 90.5,122.5C 89.1667,120.167 87.8333,117.833 86.5,115.5C 88.3109,115.428 89.6443,114.595 90.5,113C 86.6248,106.861 83.6248,100.361 81.5,93.5C 81.5,92.5 81.5,91.5 81.5,90.5 Z"/></g>
<g><path style="opacity:1" fill="#079ed9" d="M 164.5,118.5 C 166.751,118.514 169.085,118.681 171.5,119C 166.7,116.51 167.367,115.01 173.5,114.5C 173.185,116.226 173.019,117.893 173,119.5C 176.068,118.693 179.235,118.693 182.5,119.5C 182.263,120.791 182.596,121.791 183.5,122.5C 183.665,125.85 183.498,129.183 183,132.5C 181.989,133.337 180.822,133.67 179.5,133.5C 179.5,134.833 179.5,136.167 179.5,137.5C 175.677,135.929 171.677,134.929 167.5,134.5C 165.178,131.304 162.512,128.304 159.5,125.5C 155.876,126.147 152.21,126.314 148.5,126C 146.076,126.923 144.076,128.423 142.5,130.5C 139.341,131.71 136.174,131.71 133,130.5C 128.032,126.47 123.532,122.137 119.5,117.5C 120.82,115.636 122.487,113.969 124.5,112.5C 125.429,113.689 125.762,115.022 125.5,116.5C 126.873,116.657 128.207,116.49 129.5,116C 131.903,112.947 134.57,112.78 137.5,115.5C 136.145,117.929 134.478,119.262 132.5,119.5C 133.321,123.082 134.321,123.248 135.5,120C 138.036,119.661 140.536,119.161 143,118.5C 145.37,120.768 148.203,122.101 151.5,122.5C 152.5,122.333 153.5,122.167 154.5,122C 152.606,120.921 152.273,119.587 153.5,118C 157.252,118.318 160.919,118.485 164.5,118.5 Z"/></g>
<g><path style="opacity:1" fill="#394f6f" d="M 203.5,92.5 C 206.69,104.294 207.357,116.294 205.5,128.5C 205.502,136.169 203.169,142.836 198.5,148.5C 199.224,142.161 201.057,136.161 204,130.5C 204.832,119.818 204.666,109.151 203.5,98.5C 202.824,97.3984 202.158,96.3984 201.5,95.5C 201.285,93.8212 201.952,92.8212 203.5,92.5 Z"/></g>
<g><path style="opacity:1" fill="#99c7db" d="M 49.5,82.5 C 48.0184,87.0145 47.3517,91.6812 47.5,96.5C 45.7085,101.946 45.0418,107.613 45.5,113.5C 45.873,122.986 47.2063,132.319 49.5,141.5C 48.2101,140.942 47.3768,139.942 47,138.5C 46.2177,135.69 45.3844,133.023 44.5,130.5C 42.7071,116.358 43.3738,102.358 46.5,88.5C 46.9925,86.1815 47.9925,84.1815 49.5,82.5 Z"/></g>
<g><path style="opacity:1" fill="#329bc8" d="M 117.5,116.5 C 118.167,116.833 118.833,117.167 119.5,117.5C 123.532,122.137 128.032,126.47 133,130.5C 136.174,131.71 139.341,131.71 142.5,130.5C 144.076,128.423 146.076,126.923 148.5,126C 152.21,126.314 155.876,126.147 159.5,125.5C 162.512,128.304 165.178,131.304 167.5,134.5C 162.356,132.03 157.023,130.03 151.5,128.5C 147.759,129.538 144.426,131.371 141.5,134C 139.5,134.667 137.5,134.667 135.5,134C 129.608,130.893 124.275,127.059 119.5,122.5C 118.094,122.027 117.427,121.027 117.5,119.5C 117.5,118.5 117.5,117.5 117.5,116.5 Z"/></g>
<g><path style="opacity:1" fill="#9ca4d8" d="M 102.5,126.5 C 105.806,130.473 109.473,134.14 113.5,137.5C 110.326,137.336 107.493,136.336 105,134.5C 104.383,135.449 104.549,136.282 105.5,137C 104.906,137.464 104.239,137.631 103.5,137.5C 99.1415,133.804 95.4749,129.47 92.5,124.5C 92.6282,122.91 93.2949,121.577 94.5,120.5C 96.8971,122.902 99.5637,124.902 102.5,126.5 Z"/></g>
<g><path style="opacity:1" fill="#d7d8d7" d="M 29.5,96.5 C 29.3343,100.846 29.501,105.179 30,109.5C 33.1625,116.848 35.4958,124.515 37,132.5C 37.6667,131.167 38.6667,130.167 40,129.5C 40.9533,131.455 42.2866,133.122 44,134.5C 46.1521,140.106 48.1521,145.772 50,151.5C 50.7589,153.063 51.9256,154.063 53.5,154.5C 53.5,156.167 53.5,157.833 53.5,159.5C 50.495,159.747 47.995,158.747 46,156.5C 45.8333,156.833 45.6667,157.167 45.5,157.5C 46.6156,162.277 47.9489,166.944 49.5,171.5C 47.5202,176.758 45.8535,182.091 44.5,187.5C 41.7906,186.302 39.9572,187.302 39,190.5C 38.0255,188.122 37.3589,188.456 37,191.5C 36.6827,189.699 36.016,189.366 35,190.5C 34.51,189.207 34.3433,187.873 34.5,186.5C 37.5171,183.765 38.3505,180.432 37,176.5C 37.3333,176.833 37.6667,177.167 38,177.5C 38.4966,175.19 38.6633,172.857 38.5,170.5C 39.038,168.883 39.3713,167.216 39.5,165.5C 42.0341,163.25 42.0341,160.916 39.5,158.5C 31.4792,140.729 27.8125,122.062 28.5,102.5C 28.2053,100.265 28.5386,98.2646 29.5,96.5 Z"/></g>
<g><path style="opacity:0.859" fill="#676767" d="M 28.5,102.5 C 27.8125,122.062 31.4792,140.729 39.5,158.5C 38.1667,160.833 38.1667,163.167 39.5,165.5C 39.3713,167.216 39.038,168.883 38.5,170.5C 38.1667,170.5 37.8333,170.5 37.5,170.5C 37.6641,167.813 37.4974,165.146 37,162.5C 27.7465,143.228 24.9131,123.228 28.5,102.5 Z"/></g>
<g><path style="opacity:1" fill="#d7f9fc" d="M 119.5,122.5 C 124.275,127.059 129.608,130.893 135.5,134C 137.5,134.667 139.5,134.667 141.5,134C 144.426,131.371 147.759,129.538 151.5,128.5C 157.023,130.03 162.356,132.03 167.5,134.5C 169.224,136.689 171.558,137.856 174.5,138C 175.684,139.145 175.684,140.312 174.5,141.5C 168.237,137.348 161.57,133.848 154.5,131C 149.686,130.312 145.686,131.812 142.5,135.5C 139.696,136.638 136.696,136.805 133.5,136C 129.258,133.39 125.258,130.557 121.5,127.5C 120.058,126.18 119.392,124.514 119.5,122.5 Z"/></g>
<g><path style="opacity:1" fill="#3f3984" d="M 82.5,119.5 C 84.5,121.5 86.5,123.5 88.5,125.5C 89.8289,131.679 93.3289,136.346 99,139.5C 99.4643,140.094 99.631,140.761 99.5,141.5C 101.154,144.315 102.987,146.982 105,149.5C 107.463,150.032 109.297,151.366 110.5,153.5C 109.127,153.657 107.793,153.49 106.5,153C 102.794,149.114 99.6275,144.947 97,140.5C 94.939,138.437 92.6056,136.77 90,135.5C 89.3907,131.717 87.224,130.05 83.5,130.5C 83.9675,127.62 83.1341,125.287 81,123.5C 79.605,123.78 78.4383,124.447 77.5,125.5C 80.0781,133.01 82.2447,140.676 84,148.5C 85.6256,147.903 87.459,147.903 89.5,148.5C 90.1667,149.5 90.8333,150.5 91.5,151.5C 88.972,152.517 88.972,153.684 91.5,155C 91.1667,155.333 90.8333,155.667 90.5,156C 92.3774,156.576 94.2108,156.409 96,155.5C 97.7309,156.741 99.5642,157.741 101.5,158.5C 102.727,161.582 104.227,164.582 106,167.5C 106.75,168.126 107.584,168.626 108.5,169C 114.195,169.734 119.862,170.568 125.5,171.5C 130.869,171.049 136.203,170.383 141.5,169.5C 140.77,171.045 139.437,171.878 137.5,172C 109.669,176.078 88.6688,166.245 74.5,142.5C 73.9089,138.118 72.4089,134.118 70,130.5C 69.502,127.518 69.3354,124.518 69.5,121.5C 69.555,114.441 72.555,112.774 78.5,116.5C 79.0851,118.865 80.2518,120.865 82,122.5C 82.4828,121.552 82.6495,120.552 82.5,119.5 Z"/></g>
<g><path style="opacity:1" fill="#159bcd" d="M 187.5,115.5 C 187.833,115.5 188.167,115.5 188.5,115.5C 188.5,116.833 188.5,118.167 188.5,119.5C 190.143,127.237 188.476,134.237 183.5,140.5C 183.76,142.187 184.427,143.687 185.5,145C 183.338,146.645 182.005,148.812 181.5,151.5C 178.478,153.688 175.978,156.355 174,159.5C 172.484,156.949 171.651,157.282 171.5,160.5C 169.62,160.771 168.287,160.104 167.5,158.5C 168.913,155.581 170.913,153.081 173.5,151C 173.129,149.397 172.795,147.897 172.5,146.5C 173.942,145.18 174.608,143.514 174.5,141.5C 175.684,140.312 175.684,139.145 174.5,138C 171.558,137.856 169.224,136.689 167.5,134.5C 171.677,134.929 175.677,135.929 179.5,137.5C 179.5,136.167 179.5,134.833 179.5,133.5C 180.822,133.67 181.989,133.337 183,132.5C 183.498,129.183 183.665,125.85 183.5,122.5C 183.687,120.436 184.187,118.436 185,116.5C 186.516,119.051 187.349,118.718 187.5,115.5 Z"/></g>
<g><path style="opacity:0.071" fill="#535353" d="M 225.5,130.5 C 225.435,133.428 224.768,136.095 223.5,138.5C 223.294,135.505 223.96,132.838 225.5,130.5 Z"/></g>
<g><path style="opacity:1" fill="#e4e5e9" d="M 174.5,141.5 C 174.608,143.514 173.942,145.18 172.5,146.5C 170.5,147.833 168.833,149.5 167.5,151.5C 165.539,153.312 163.206,154.312 160.5,154.5C 157.545,153.841 154.545,153.508 151.5,153.5C 153.265,152.539 155.265,152.205 157.5,152.5C 157.5,151.5 157.5,150.5 157.5,149.5C 162.303,149.91 163.303,148.41 160.5,145C 159.167,144.833 157.833,144.667 156.5,144.5C 153.635,145.046 150.969,146.046 148.5,147.5C 147.263,147.444 146.263,146.944 145.5,146C 149.526,143.954 153.526,141.954 157.5,140C 158.369,138.535 157.869,137.369 156,136.5C 152.148,139.333 148.981,138.666 146.5,134.5C 145.264,135.246 143.93,135.579 142.5,135.5C 145.686,131.812 149.686,130.312 154.5,131C 161.57,133.848 168.237,137.348 174.5,141.5 Z"/></g>
<g><path style="opacity:0.133" fill="#4c4c4c" d="M 223.5,138.5 C 223.741,140.898 223.074,142.898 221.5,144.5C 221.595,142.214 222.262,140.214 223.5,138.5 Z"/></g>
<g><path style="opacity:1" fill="#51378a" d="M 110.5,153.5 C 111.315,154.837 112.482,155.837 114,156.5C 114.49,157.793 114.657,159.127 114.5,160.5C 109.921,160.847 105.588,160.18 101.5,158.5C 99.5642,157.741 97.7309,156.741 96,155.5C 94.2108,156.409 92.3774,156.576 90.5,156C 90.8333,155.667 91.1667,155.333 91.5,155C 88.972,153.684 88.972,152.517 91.5,151.5C 90.8333,150.5 90.1667,149.5 89.5,148.5C 87.459,147.903 85.6256,147.903 84,148.5C 82.2447,140.676 80.0781,133.01 77.5,125.5C 78.4383,124.447 79.605,123.78 81,123.5C 83.1341,125.287 83.9675,127.62 83.5,130.5C 87.224,130.05 89.3907,131.717 90,135.5C 92.6056,136.77 94.939,138.437 97,140.5C 99.6275,144.947 102.794,149.114 106.5,153C 107.793,153.49 109.127,153.657 110.5,153.5 Z"/></g>
<g><path style="opacity:0.004" fill="#000000" d="M 15.5,143.5 C 16.8333,144.167 16.8333,144.167 15.5,143.5 Z"/></g>
<g><path style="opacity:1" fill="#0888d4" d="M 60.5,102.5 C 60.5,103.833 60.5,105.167 60.5,106.5C 59.8826,106.611 59.3826,106.944 59,107.5C 57.044,117.504 57.044,127.504 59,137.5C 61.8229,143.815 64.6562,150.148 67.5,156.5C 71.3835,159.311 75.0502,162.311 78.5,165.5C 80.8013,166.325 83.1346,166.992 85.5,167.5C 91.1938,170.434 96.6938,173.767 102,177.5C 102.671,176.748 103.504,176.414 104.5,176.5C 105.913,177.935 107.58,178.935 109.5,179.5C 103.382,179.906 97.882,177.906 93,173.5C 91.7012,173.966 90.2012,173.966 88.5,173.5C 83.4734,175.35 79.9734,173.683 78,168.5C 77.2753,169.059 76.4419,169.392 75.5,169.5C 71.2525,167.876 66.9192,166.542 62.5,165.5C 61.5853,164.672 60.9186,163.672 60.5,162.5C 59.8179,158.862 59.3179,155.195 59,151.5C 57.1467,149.72 55.3134,148.053 53.5,146.5C 52.6618,146.158 52.3284,145.492 52.5,144.5C 49.9604,137.027 49.127,129.36 50,121.5C 51.3333,118.833 52.6667,118.833 54,121.5C 54.853,119.065 55.853,116.731 57,114.5C 56.8765,109.955 58.0431,105.955 60.5,102.5 Z"/></g>
<g><path style="opacity:1" fill="#8d72ab" d="M 113.5,137.5 C 116.205,139.859 119.205,141.859 122.5,143.5C 123.306,144.728 124.306,145.728 125.5,146.5C 114.007,144.19 113.673,145.69 124.5,151C 125.252,151.671 125.586,152.504 125.5,153.5C 116.737,150.061 109.404,144.728 103.5,137.5C 104.239,137.631 104.906,137.464 105.5,137C 104.549,136.282 104.383,135.449 105,134.5C 107.493,136.336 110.326,137.336 113.5,137.5 Z"/></g>
<g><path style="opacity:1" fill="#355e89" d="M 193.5,88.5 C 194.302,89.9516 194.802,91.6183 195,93.5C 195.333,91.8333 195.667,90.1667 196,88.5C 197.308,91.3011 199.141,93.6344 201.5,95.5C 202.158,96.3984 202.824,97.3984 203.5,98.5C 204.666,109.151 204.832,119.818 204,130.5C 201.057,136.161 199.224,142.161 198.5,148.5C 197.738,153.582 196.072,158.248 193.5,162.5C 191.806,163.527 190.473,164.861 189.5,166.5C 192.386,161.25 194.219,155.583 195,149.5C 196.377,141.701 197.543,133.868 198.5,126C 197.736,120.538 197.236,115.038 197,109.5C 196.623,108.058 195.79,107.058 194.5,106.5C 193.637,100.545 193.303,94.5451 193.5,88.5 Z"/></g>
<g><path style="opacity:1" fill="#e6e6e4" d="M 121.5,127.5 C 125.258,130.557 129.258,133.39 133.5,136C 136.696,136.805 139.696,136.638 142.5,135.5C 143.93,135.579 145.264,135.246 146.5,134.5C 148.981,138.666 152.148,139.333 156,136.5C 157.869,137.369 158.369,138.535 157.5,140C 153.526,141.954 149.526,143.954 145.5,146C 146.263,146.944 147.263,147.444 148.5,147.5C 150.969,146.046 153.635,145.046 156.5,144.5C 157.833,144.667 159.167,144.833 160.5,145C 163.303,148.41 162.303,149.91 157.5,149.5C 157.5,150.5 157.5,151.5 157.5,152.5C 155.265,152.205 153.265,152.539 151.5,153.5C 146.772,150.823 141.439,149.323 135.5,149C 133.503,147.807 131.836,146.307 130.5,144.5C 129.71,143.206 128.71,142.039 127.5,141C 128.428,140.612 129.095,139.945 129.5,139C 126.156,133.842 124.823,134.342 125.5,140.5C 123.833,140.5 122.167,140.5 120.5,140.5C 120.544,136.91 122.211,134.41 125.5,133C 122.798,132.947 120.131,133.447 117.5,134.5C 116.833,134.167 116.167,133.833 115.5,133.5C 117.276,132.685 117.943,131.518 117.5,130C 116.167,129.667 114.833,129.333 113.5,129C 115.303,128.363 116.636,127.197 117.5,125.5C 118.524,126.853 119.857,127.52 121.5,127.5 Z"/></g>
<g><path style="opacity:0.231" fill="#656565" d="M 221.5,144.5 C 221.128,148.297 219.794,151.63 217.5,154.5C 217.833,152.5 218.167,150.5 218.5,148.5C 219.5,147.167 220.5,145.833 221.5,144.5 Z"/></g>
<g><path style="opacity:1" fill="#e8daec" d="M 122.5,143.5 C 125.096,144.265 127.763,144.599 130.5,144.5C 131.836,146.307 133.503,147.807 135.5,149C 141.439,149.323 146.772,150.823 151.5,153.5C 154.545,153.508 157.545,153.841 160.5,154.5C 156.019,155.648 151.352,155.815 146.5,155C 139.471,152.984 132.804,150.151 126.5,146.5C 126.167,146.5 125.833,146.5 125.5,146.5C 124.306,145.728 123.306,144.728 122.5,143.5 Z"/></g>
<g><path style="opacity:1" fill="#267caf" d="M 189.5,101.5 C 191.727,107.071 193.394,112.738 194.5,118.5C 195.278,134.279 193.278,149.613 188.5,164.5C 188.543,165.416 188.876,166.083 189.5,166.5C 187.833,170.167 185.167,172.833 181.5,174.5C 180.833,174.5 180.167,174.5 179.5,174.5C 181.068,172.231 182.568,169.898 184,167.5C 185.106,156.859 187.439,146.525 191,136.5C 191.667,131.833 191.667,127.167 191,122.5C 190.764,120.881 189.931,119.881 188.5,119.5C 188.5,118.167 188.5,116.833 188.5,115.5C 189.018,114.423 189.352,113.256 189.5,112C 188.191,108.981 187.191,105.815 186.5,102.5C 187.325,101.614 188.325,101.281 189.5,101.5 Z"/></g>
<g><path style="opacity:1" fill="#0b7cca" d="M 60.5,106.5 C 59.1286,113.573 59.462,120.573 61.5,127.5C 61.3367,129.857 61.5034,132.19 62,134.5C 62.7072,138.023 64.3739,141.023 67,143.5C 67.3333,145.167 67.6667,146.833 68,148.5C 70.1485,149.977 71.4818,151.977 72,154.5C 73.9605,157.135 76.4605,158.969 79.5,160C 82.1177,162.106 84.1177,164.606 85.5,167.5C 83.1346,166.992 80.8013,166.325 78.5,165.5C 75.0502,162.311 71.3835,159.311 67.5,156.5C 64.6562,150.148 61.8229,143.815 59,137.5C 57.044,127.504 57.044,117.504 59,107.5C 59.3826,106.944 59.8826,106.611 60.5,106.5 Z"/></g>
<g><path style="opacity:1" fill="#e2e3e3" d="M 210.5,127.5 C 210.146,132.287 211.812,136.121 215.5,139C 213.846,142.197 213.679,145.364 215,148.5C 216.393,145.875 217.559,145.875 218.5,148.5C 218.167,150.5 217.833,152.5 217.5,154.5C 215.787,155.635 215.12,157.302 215.5,159.5C 213.179,162.796 210.846,166.129 208.5,169.5C 207.448,169.351 206.448,169.517 205.5,170C 202.547,173.408 199.713,176.908 197,180.5C 195.23,178.582 193.063,178.082 190.5,179C 190.324,181.509 190.324,184.009 190.5,186.5C 187.149,189.848 183.482,192.848 179.5,195.5C 176.543,195.244 173.876,194.244 171.5,192.5C 169.821,194.104 167.821,194.771 165.5,194.5C 165.5,193.5 165.5,192.5 165.5,191.5C 166.978,191.762 168.311,191.429 169.5,190.5C 169.043,189.702 168.376,189.369 167.5,189.5C 173.487,185.03 179.654,180.696 186,176.5C 188.784,171.979 191.284,167.312 193.5,162.5C 194.794,161.71 195.961,160.71 197,159.5C 198.57,154.688 200.904,150.355 204,146.5C 206.341,140.091 208.508,133.757 210.5,127.5 Z"/></g>
<g><path style="opacity:1" fill="#8b5e9d" d="M 125.5,146.5 C 125.833,146.5 126.167,146.5 126.5,146.5C 126.281,147.675 126.614,148.675 127.5,149.5C 136.373,153.706 145.706,156.54 155.5,158C 153.361,159.404 151.028,160.237 148.5,160.5C 144.868,159.754 141.202,159.421 137.5,159.5C 133.182,158.008 129.182,156.008 125.5,153.5C 125.586,152.504 125.252,151.671 124.5,151C 113.673,145.69 114.007,144.19 125.5,146.5 Z"/></g>
<g><path style="opacity:1" fill="#2c6b9c" d="M 194.5,106.5 C 195.79,107.058 196.623,108.058 197,109.5C 197.236,115.038 197.736,120.538 198.5,126C 197.543,133.868 196.377,141.701 195,149.5C 194.219,155.583 192.386,161.25 189.5,166.5C 188.876,166.083 188.543,165.416 188.5,164.5C 193.278,149.613 195.278,134.279 194.5,118.5C 195.02,114.347 195.02,110.347 194.5,106.5 Z"/></g>
<g><path style="opacity:1" fill="#86b4d2" d="M 51.5,144.5 C 51.8333,144.5 52.1667,144.5 52.5,144.5C 52.3284,145.492 52.6618,146.158 53.5,146.5C 55.4041,150.309 56.7374,154.309 57.5,158.5C 56.0986,164.142 54.0986,169.476 51.5,174.5C 52.8216,169.529 54.1549,164.529 55.5,159.5C 55.5643,157.443 54.8976,155.777 53.5,154.5C 53.4242,151.027 52.7576,147.694 51.5,144.5 Z"/></g>
<g><path style="opacity:1" fill="#2b2053" d="M 90.5,122.5 C 91.1667,123.167 91.8333,123.833 92.5,124.5C 95.4749,129.47 99.1415,133.804 103.5,137.5C 109.404,144.728 116.737,150.061 125.5,153.5C 129.182,156.008 133.182,158.008 137.5,159.5C 144.64,161.626 151.973,161.96 159.5,160.5C 159.938,160.435 160.272,160.601 160.5,161C 159.614,162.615 158.614,164.115 157.5,165.5C 153.915,166.583 150.249,167.249 146.5,167.5C 145.508,167.672 144.842,167.338 144.5,166.5C 142.758,165.043 140.758,163.876 138.5,163C 132.277,163.777 127.277,161.777 123.5,157C 117.698,154.265 112.031,151.265 106.5,148C 105.663,146.989 105.33,145.822 105.5,144.5C 103.328,143.794 101.328,142.794 99.5,141.5C 99.631,140.761 99.4643,140.094 99,139.5C 93.3289,136.346 89.8289,131.679 88.5,125.5C 88.0948,123.35 87.5948,121.35 87,119.5C 88.0391,120.71 89.2058,121.71 90.5,122.5 Z"/></g>
<g><path style="opacity:0.282" fill="#565656" d="M 217.5,154.5 C 217.598,156.553 216.931,158.22 215.5,159.5C 215.12,157.302 215.787,155.635 217.5,154.5 Z"/></g>
<g><path style="opacity:1" fill="#176ab7" d="M 64.5,119.5 C 65.2668,123.415 65.7668,127.415 66,131.5C 68.4909,135.909 70.4909,140.575 72,145.5C 74.9628,147.461 77.6294,149.794 80,152.5C 82.9649,156.821 86.1316,160.821 89.5,164.5C 89.4142,165.496 89.7476,166.329 90.5,167C 93.4326,168.271 96.0993,169.938 98.5,172C 101.234,172.21 103.734,173.044 106,174.5C 107.313,173.713 108.48,174.046 109.5,175.5C 108.081,176.451 106.415,176.784 104.5,176.5C 103.504,176.414 102.671,176.748 102,177.5C 96.6938,173.767 91.1938,170.434 85.5,167.5C 84.1177,164.606 82.1177,162.106 79.5,160C 76.4605,158.969 73.9605,157.135 72,154.5C 71.4818,151.977 70.1485,149.977 68,148.5C 67.6667,146.833 67.3333,145.167 67,143.5C 64.3739,141.023 62.7072,138.023 62,134.5C 61.5034,132.19 61.3367,129.857 61.5,127.5C 62.1475,129.498 62.9808,131.498 64,133.5C 63.3237,128.701 63.4903,124.035 64.5,119.5 Z"/></g>
<g><path style="opacity:1" fill="#3a2867" d="M 99.5,141.5 C 101.328,142.794 103.328,143.794 105.5,144.5C 105.33,145.822 105.663,146.989 106.5,148C 112.031,151.265 117.698,154.265 123.5,157C 127.277,161.777 132.277,163.777 138.5,163C 140.758,163.876 142.758,165.043 144.5,166.5C 138.362,167.268 132.695,166.101 127.5,163C 125.866,162.506 124.199,162.34 122.5,162.5C 122.5,161.5 122.5,160.5 122.5,159.5C 118.684,157.326 114.684,155.326 110.5,153.5C 109.297,151.366 107.463,150.032 105,149.5C 102.987,146.982 101.154,144.315 99.5,141.5 Z"/></g>
<g><path style="opacity:0.851" fill="#818181" d="M 39.5,158.5 C 42.0341,160.916 42.0341,163.25 39.5,165.5C 38.1667,163.167 38.1667,160.833 39.5,158.5 Z"/></g>
<g><path style="opacity:1" fill="#7a598e" d="M 126.5,146.5 C 132.804,150.151 139.471,152.984 146.5,155C 151.352,155.815 156.019,155.648 160.5,154.5C 163.206,154.312 165.539,153.312 167.5,151.5C 167.938,151.435 168.272,151.601 168.5,152C 167.54,153.419 166.707,154.919 166,156.5C 163.383,157.219 161.216,158.553 159.5,160.5C 151.973,161.96 144.64,161.626 137.5,159.5C 141.202,159.421 144.868,159.754 148.5,160.5C 151.028,160.237 153.361,159.404 155.5,158C 145.706,156.54 136.373,153.706 127.5,149.5C 126.614,148.675 126.281,147.675 126.5,146.5 Z"/></g>
<g><path style="opacity:0.129" fill="#454545" d="M 215.5,159.5 C 213.251,165.005 210.251,170.005 206.5,174.5C 206.893,172.716 207.559,171.05 208.5,169.5C 210.846,166.129 213.179,162.796 215.5,159.5 Z"/></g>
<g><path style="opacity:1" fill="#483280" d="M 110.5,153.5 C 114.684,155.326 118.684,157.326 122.5,159.5C 122.5,160.5 122.5,161.5 122.5,162.5C 124.199,162.34 125.866,162.506 127.5,163C 132.695,166.101 138.362,167.268 144.5,166.5C 144.842,167.338 145.508,167.672 146.5,167.5C 146.167,168.167 145.833,168.833 145.5,169.5C 144.167,169.5 142.833,169.5 141.5,169.5C 136.203,170.383 130.869,171.049 125.5,171.5C 119.862,170.568 114.195,169.734 108.5,169C 107.584,168.626 106.75,168.126 106,167.5C 104.227,164.582 102.727,161.582 101.5,158.5C 105.588,160.18 109.921,160.847 114.5,160.5C 114.657,159.127 114.49,157.793 114,156.5C 112.482,155.837 111.315,154.837 110.5,153.5 Z"/></g>
<g><path style="opacity:1" fill="#0e92cd" d="M 188.5,119.5 C 189.931,119.881 190.764,120.881 191,122.5C 191.667,127.167 191.667,131.833 191,136.5C 187.439,146.525 185.106,156.859 184,167.5C 182.568,169.898 181.068,172.231 179.5,174.5C 177.091,178.533 173.424,180.2 168.5,179.5C 168.719,180.675 168.386,181.675 167.5,182.5C 164.265,181.986 161.432,180.652 159,178.5C 158.5,178.833 158,179.167 157.5,179.5C 158.5,180.333 159.5,181.167 160.5,182C 159.733,184.053 158.4,185.553 156.5,186.5C 152.146,185.312 148.146,183.645 144.5,181.5C 147.11,179.18 149.777,176.847 152.5,174.5C 155.796,170.702 159.296,167.036 163,163.5C 163.145,160.509 164.645,158.842 167.5,158.5C 168.287,160.104 169.62,160.771 171.5,160.5C 171.651,157.282 172.484,156.949 174,159.5C 175.978,156.355 178.478,153.688 181.5,151.5C 182.005,148.812 183.338,146.645 185.5,145C 184.427,143.687 183.76,142.187 183.5,140.5C 188.476,134.237 190.143,127.237 188.5,119.5 Z"/></g>
<g><path style="opacity:1" fill="#2c4d97" d="M 67.5,95.5 C 67.5,96.5 67.5,97.5 67.5,98.5C 67.1362,106.403 67.8028,114.07 69.5,121.5C 69.3354,124.518 69.502,127.518 70,130.5C 72.4089,134.118 73.9089,138.118 74.5,142.5C 88.6688,166.245 109.669,176.078 137.5,172C 139.437,171.878 140.77,171.045 141.5,169.5C 142.833,169.5 144.167,169.5 145.5,169.5C 145.586,170.496 145.252,171.329 144.5,172C 124.882,177.408 106.548,174.908 89.5,164.5C 86.1316,160.821 82.9649,156.821 80,152.5C 77.6294,149.794 74.9628,147.461 72,145.5C 70.4909,140.575 68.4909,135.909 66,131.5C 65.7668,127.415 65.2668,123.415 64.5,119.5C 64.3342,114.821 64.5008,110.155 65,105.5C 65.1489,101.867 65.9823,98.5341 67.5,95.5 Z"/></g>
<g><path style="opacity:1" fill="#0c98d6" d="M 53.5,146.5 C 55.3134,148.053 57.1467,149.72 59,151.5C 59.3179,155.195 59.8179,158.862 60.5,162.5C 60.9186,163.672 61.5853,164.672 62.5,165.5C 66.9192,166.542 71.2525,167.876 75.5,169.5C 76.4419,169.392 77.2753,169.059 78,168.5C 79.9734,173.683 83.4734,175.35 88.5,173.5C 92.3466,174.999 95.6799,177.333 98.5,180.5C 112.606,185.084 126.939,185.751 141.5,182.5C 141.804,183.15 142.137,183.817 142.5,184.5C 140.219,185.277 138.052,186.277 136,187.5C 133.945,187.152 131.945,187.819 130,189.5C 129.667,189.167 129.333,188.833 129,188.5C 124.716,189.136 120.549,190.136 116.5,191.5C 113.262,191.087 110.262,190.087 107.5,188.5C 105.845,189.228 104.179,189.395 102.5,189C 100.008,184.536 97.3414,184.369 94.5,188.5C 91.2299,182.37 86.2299,180.37 79.5,182.5C 77.6663,181.246 75.6663,180.579 73.5,180.5C 73.6399,182.124 72.9733,183.29 71.5,184C 66.9881,184.395 62.6548,184.062 58.5,183C 57.0506,184.117 55.3839,184.784 53.5,185C 51.0687,191.111 49.4021,190.945 48.5,184.5C 49.0991,181.037 50.0991,177.704 51.5,174.5C 54.0986,169.476 56.0986,164.142 57.5,158.5C 56.7374,154.309 55.4041,150.309 53.5,146.5 Z"/></g>
<g><path style="opacity:1" fill="#275ea4" d="M 89.5,164.5 C 106.548,174.908 124.882,177.408 144.5,172C 145.252,171.329 145.586,170.496 145.5,169.5C 145.833,168.833 146.167,168.167 146.5,167.5C 150.249,167.249 153.915,166.583 157.5,165.5C 154.49,167.354 151.824,169.687 149.5,172.5C 141.237,174.65 132.904,176.317 124.5,177.5C 119.287,177.664 114.287,176.998 109.5,175.5C 108.48,174.046 107.313,173.713 106,174.5C 103.734,173.044 101.234,172.21 98.5,172C 96.0993,169.938 93.4326,168.271 90.5,167C 89.7476,166.329 89.4142,165.496 89.5,164.5 Z"/></g>
<g><path style="opacity:1" fill="#1f71af" d="M 172.5,146.5 C 172.795,147.897 173.129,149.397 173.5,151C 170.913,153.081 168.913,155.581 167.5,158.5C 164.645,158.842 163.145,160.509 163,163.5C 159.296,167.036 155.796,170.702 152.5,174.5C 146.207,175.907 139.874,177.407 133.5,179C 125.503,180.465 117.503,180.631 109.5,179.5C 107.58,178.935 105.913,177.935 104.5,176.5C 106.415,176.784 108.081,176.451 109.5,175.5C 114.287,176.998 119.287,177.664 124.5,177.5C 132.904,176.317 141.237,174.65 149.5,172.5C 151.824,169.687 154.49,167.354 157.5,165.5C 158.614,164.115 159.614,162.615 160.5,161C 160.272,160.601 159.938,160.435 159.5,160.5C 161.216,158.553 163.383,157.219 166,156.5C 166.707,154.919 167.54,153.419 168.5,152C 168.272,151.601 167.938,151.435 167.5,151.5C 168.833,149.5 170.5,147.833 172.5,146.5 Z"/></g>
<g><path style="opacity:1" fill="#cecece" d="M 208.5,169.5 C 207.559,171.05 206.893,172.716 206.5,174.5C 204.177,177.126 201.843,179.793 199.5,182.5C 198.504,182.586 197.671,182.252 197,181.5C 196.383,182.449 196.549,183.282 197.5,184C 196.551,184.617 195.718,184.451 195,183.5C 193.908,185.117 192.408,186.117 190.5,186.5C 190.324,184.009 190.324,181.509 190.5,179C 193.063,178.082 195.23,178.582 197,180.5C 199.713,176.908 202.547,173.408 205.5,170C 206.448,169.517 207.448,169.351 208.5,169.5 Z"/></g>
<g><path style="opacity:0.055" fill="#3a3a3b" d="M 206.5,174.5 C 205.306,178.363 202.973,181.363 199.5,183.5C 199.5,183.167 199.5,182.833 199.5,182.5C 201.843,179.793 204.177,177.126 206.5,174.5 Z"/></g>
<g><path style="opacity:1" fill="#0e89c8" d="M 88.5,173.5 C 90.2012,173.966 91.7012,173.966 93,173.5C 97.882,177.906 103.382,179.906 109.5,179.5C 117.503,180.631 125.503,180.465 133.5,179C 139.874,177.407 146.207,175.907 152.5,174.5C 149.777,176.847 147.11,179.18 144.5,181.5C 143.609,182.11 142.609,182.443 141.5,182.5C 126.939,185.751 112.606,185.084 98.5,180.5C 95.6799,177.333 92.3466,174.999 88.5,173.5 Z"/></g>
<g><path style="opacity:0.89" fill="#b3b3b3" d="M 37.5,170.5 C 37.8333,170.5 38.1667,170.5 38.5,170.5C 38.6633,172.857 38.4966,175.19 38,177.5C 37.6667,177.167 37.3333,176.833 37,176.5C 38.3505,180.432 37.5171,183.765 34.5,186.5C 33.1274,188.207 31.4607,189.54 29.5,190.5C 32.1693,183.829 34.836,177.162 37.5,170.5 Z"/></g>
<g><path style="opacity:1" fill="#0d9fd5" d="M 179.5,174.5 C 180.167,174.5 180.833,174.5 181.5,174.5C 177.371,179.121 172.705,183.288 167.5,187C 164.222,188.809 160.889,190.309 157.5,191.5C 148.986,194.295 140.319,196.462 131.5,198C 123.252,199.726 114.918,200.559 106.5,200.5C 104.46,201.519 102.46,201.519 100.5,200.5C 102.086,198.827 102.753,196.827 102.5,194.5C 100.362,194.703 98.6951,195.703 97.5,197.5C 96.2655,195.602 96.5989,193.935 98.5,192.5C 97.9646,190.729 97.1313,190.396 96,191.5C 94.9614,190.756 94.4614,189.756 94.5,188.5C 97.3414,184.369 100.008,184.536 102.5,189C 104.179,189.395 105.845,189.228 107.5,188.5C 110.262,190.087 113.262,191.087 116.5,191.5C 120.549,190.136 124.716,189.136 129,188.5C 129.333,188.833 129.667,189.167 130,189.5C 131.945,187.819 133.945,187.152 136,187.5C 138.052,186.277 140.219,185.277 142.5,184.5C 142.137,183.817 141.804,183.15 141.5,182.5C 142.609,182.443 143.609,182.11 144.5,181.5C 148.146,183.645 152.146,185.312 156.5,186.5C 158.4,185.553 159.733,184.053 160.5,182C 159.5,181.167 158.5,180.333 157.5,179.5C 158,179.167 158.5,178.833 159,178.5C 161.432,180.652 164.265,181.986 167.5,182.5C 168.386,181.675 168.719,180.675 168.5,179.5C 173.424,180.2 177.091,178.533 179.5,174.5 Z"/></g>
<g><path style="opacity:0.999" fill="#d6d6d6" d="M 34.5,186.5 C 34.3433,187.873 34.51,189.207 35,190.5C 36.016,189.366 36.6827,189.699 37,191.5C 37.3589,188.456 38.0255,188.122 39,190.5C 39.9572,187.302 41.7906,186.302 44.5,187.5C 42.819,190.582 42.1524,193.915 42.5,197.5C 43.5,197.5 44.5,197.5 45.5,197.5C 45.5,198.5 45.5,199.5 45.5,200.5C 49.5673,201.341 52.5673,200.007 54.5,196.5C 55.4776,196.977 56.3109,197.643 57,198.5C 58.629,198.836 60.129,198.17 61.5,196.5C 62.1408,197.482 62.8075,198.482 63.5,199.5C 67.4454,200.491 71.4454,200.824 75.5,200.5C 63.3743,204.125 51.3743,208.125 39.5,212.5C 33.7364,213.063 28.4031,214.729 23.5,217.5C 21.7615,218.434 20.0948,218.434 18.5,217.5C 21.7219,210.055 25.2219,202.722 29,195.5C 29.49,194.207 29.6567,192.873 29.5,191.5C 29.5,191.167 29.5,190.833 29.5,190.5C 31.4607,189.54 33.1274,188.207 34.5,186.5 Z"/></g>
<g><path style="opacity:1" fill="#c5eef7" d="M 193.5,162.5 C 191.284,167.312 188.784,171.979 186,176.5C 179.654,180.696 173.487,185.03 167.5,189.5C 162.825,191.835 158.158,194.168 153.5,196.5C 149.618,197.803 145.618,198.47 141.5,198.5C 147.26,197.29 152.593,194.957 157.5,191.5C 160.889,190.309 164.222,188.809 167.5,187C 172.705,183.288 177.371,179.121 181.5,174.5C 185.167,172.833 187.833,170.167 189.5,166.5C 190.473,164.861 191.806,163.527 193.5,162.5 Z"/></g>
<g><path style="opacity:1" fill="#dfdfdf" d="M 167.5,189.5 C 168.376,189.369 169.043,189.702 169.5,190.5C 168.311,191.429 166.978,191.762 165.5,191.5C 165.5,192.5 165.5,193.5 165.5,194.5C 167.821,194.771 169.821,194.104 171.5,192.5C 173.876,194.244 176.543,195.244 179.5,195.5C 179.5,195.833 179.5,196.167 179.5,196.5C 176.507,196.995 174.174,198.495 172.5,201C 167.713,203.319 162.713,205.152 157.5,206.5C 150.412,206.447 143.412,207.114 136.5,208.5C 133.076,208.518 129.743,208.018 126.5,207C 131.933,206.989 137.433,206.156 143,204.5C 146.283,203.054 149.449,201.387 152.5,199.5C 153.127,198.583 153.461,197.583 153.5,196.5C 158.158,194.168 162.825,191.835 167.5,189.5 Z"/></g>
<g><path style="opacity:0.961" fill="#8f8f8e" d="M 199.5,182.5 C 199.5,182.833 199.5,183.167 199.5,183.5C 197.5,186.167 195.167,188.5 192.5,190.5C 190.394,191.783 188.06,192.616 185.5,193C 186.345,194.558 185.679,195.558 183.5,196C 182.207,196.49 180.873,196.657 179.5,196.5C 179.5,196.167 179.5,195.833 179.5,195.5C 183.482,192.848 187.149,189.848 190.5,186.5C 192.408,186.117 193.908,185.117 195,183.5C 195.718,184.451 196.551,184.617 197.5,184C 196.549,183.282 196.383,182.449 197,181.5C 197.671,182.252 198.504,182.586 199.5,182.5 Z"/></g>
<g><path style="opacity:1" fill="#d7dfe2" d="M 53.5,154.5 C 54.8976,155.777 55.5643,157.443 55.5,159.5C 54.1549,164.529 52.8216,169.529 51.5,174.5C 50.0991,177.704 49.0991,181.037 48.5,184.5C 46.8856,186.28 45.8856,188.446 45.5,191C 45.6083,192.681 46.2749,193.848 47.5,194.5C 57.2445,193.53 66.5779,191.03 75.5,187C 79.4402,185.985 83.4402,185.485 87.5,185.5C 89.5,186.167 90.8333,187.5 91.5,189.5C 91.5,190.5 91.5,191.5 91.5,192.5C 89.6244,189.825 88.1244,190.158 87,193.5C 85.3421,191.38 83.6755,189.38 82,187.5C 71.6191,190.525 71.4524,192.192 81.5,192.5C 81.5,193.5 81.5,194.5 81.5,195.5C 77.5425,195.732 73.8758,194.899 70.5,193C 73.1208,192.094 72.9541,191.594 70,191.5C 66.0614,191.544 63.228,193.21 61.5,196.5C 60.129,198.17 58.629,198.836 57,198.5C 56.3109,197.643 55.4776,196.977 54.5,196.5C 52.5673,200.007 49.5673,201.341 45.5,200.5C 45.5,199.5 45.5,198.5 45.5,197.5C 44.5,197.5 43.5,197.5 42.5,197.5C 42.1524,193.915 42.819,190.582 44.5,187.5C 45.8535,182.091 47.5202,176.758 49.5,171.5C 47.9489,166.944 46.6156,162.277 45.5,157.5C 45.6667,157.167 45.8333,156.833 46,156.5C 47.995,158.747 50.495,159.747 53.5,159.5C 53.5,157.833 53.5,156.167 53.5,154.5 Z"/></g>
<g><path style="opacity:1" fill="#269ecc" d="M 94.5,188.5 C 94.4614,189.756 94.9614,190.756 96,191.5C 97.1313,190.396 97.9646,190.729 98.5,192.5C 96.5989,193.935 96.2655,195.602 97.5,197.5C 98.6951,195.703 100.362,194.703 102.5,194.5C 102.753,196.827 102.086,198.827 100.5,200.5C 102.46,201.519 104.46,201.519 106.5,200.5C 104.54,203.563 101.873,204.229 98.5,202.5C 97.8503,200.816 96.8503,199.483 95.5,198.5C 94.5383,195.261 93.2049,192.261 91.5,189.5C 90.8333,187.5 89.5,186.167 87.5,185.5C 85.5449,183.674 83.2116,183.174 80.5,184C 69.2329,187.035 58.2329,190.535 47.5,194.5C 46.2749,193.848 45.6083,192.681 45.5,191C 45.8856,188.446 46.8856,186.28 48.5,184.5C 49.4021,190.945 51.0687,191.111 53.5,185C 55.3839,184.784 57.0506,184.117 58.5,183C 62.6548,184.062 66.9881,184.395 71.5,184C 72.9733,183.29 73.6399,182.124 73.5,180.5C 75.6663,180.579 77.6663,181.246 79.5,182.5C 86.2299,180.37 91.2299,182.37 94.5,188.5 Z"/></g>
<g><path style="opacity:1" fill="#c6f5fb" d="M 87.5,185.5 C 83.4402,185.485 79.4402,185.985 75.5,187C 66.5779,191.03 57.2445,193.53 47.5,194.5C 58.2329,190.535 69.2329,187.035 80.5,184C 83.2116,183.174 85.5449,183.674 87.5,185.5 Z"/></g>
<g><path style="opacity:1" fill="#39a0bf" d="M 157.5,191.5 C 152.593,194.957 147.26,197.29 141.5,198.5C 127.931,200.026 114.431,202.026 101,204.5C 96.6577,204.821 94.8244,202.821 95.5,198.5C 96.8503,199.483 97.8503,200.816 98.5,202.5C 101.873,204.229 104.54,203.563 106.5,200.5C 114.918,200.559 123.252,199.726 131.5,198C 140.319,196.462 148.986,194.295 157.5,191.5 Z"/></g>
<g><path style="opacity:1" fill="#d0f7fa" d="M 91.5,189.5 C 93.2049,192.261 94.5383,195.261 95.5,198.5C 94.8244,202.821 96.6577,204.821 101,204.5C 114.431,202.026 127.931,200.026 141.5,198.5C 129.754,201.481 117.754,203.981 105.5,206C 104.944,206.383 104.611,206.883 104.5,207.5C 99.2943,208.521 95.461,206.855 93,202.5C 91.9571,199.243 91.4571,195.91 91.5,192.5C 91.5,191.5 91.5,190.5 91.5,189.5 Z"/></g>
<g><path style="opacity:0.77" fill="#6c6c6c" d="M 91.5,222.5 C 90.1516,223.186 88.985,224.186 88,225.5C 87.6924,224.692 87.1924,224.025 86.5,223.5C 85.5745,224.641 84.7412,224.641 84,223.5C 81.7361,215.864 80.4028,208.197 80,200.5C 79.6667,201.833 79.3333,203.167 79,204.5C 76.5444,203.158 74.3778,203.491 72.5,205.5C 64.2978,208.301 55.9645,210.634 47.5,212.5C 44.8333,212.5 42.1667,212.5 39.5,212.5C 51.3743,208.125 63.3743,204.125 75.5,200.5C 77.4352,199.85 79.4352,199.517 81.5,199.5C 83.3735,207.121 85.0402,214.788 86.5,222.5C 88.1667,222.5 89.8333,222.5 91.5,222.5 Z"/></g>
<g><path style="opacity:1" fill="#dce0e1" d="M 153.5,196.5 C 153.461,197.583 153.127,198.583 152.5,199.5C 149.449,201.387 146.283,203.054 143,204.5C 137.433,206.156 131.933,206.989 126.5,207C 129.743,208.018 133.076,208.518 136.5,208.5C 143.412,207.114 150.412,206.447 157.5,206.5C 156.152,208.48 154.152,209.647 151.5,210C 143.585,212.029 135.585,213.529 127.5,214.5C 126.325,214.719 125.325,214.386 124.5,213.5C 125.729,212.719 127.062,212.219 128.5,212C 125.779,210.069 123.279,210.236 121,212.5C 116.145,209.02 110.645,207.354 104.5,207.5C 104.611,206.883 104.944,206.383 105.5,206C 117.754,203.981 129.754,201.481 141.5,198.5C 145.618,198.47 149.618,197.803 153.5,196.5 Z"/></g>
<g><path style="opacity:0.004" fill="#000000" d="M 7.5,207.5 C 8.83333,208.167 8.83333,208.167 7.5,207.5 Z"/></g>
<g><path style="opacity:1" fill="#dadadb" d="M 91.5,192.5 C 91.4571,195.91 91.9571,199.243 93,202.5C 95.461,206.855 99.2943,208.521 104.5,207.5C 110.645,207.354 116.145,209.02 121,212.5C 123.279,210.236 125.779,210.069 128.5,212C 127.062,212.219 125.729,212.719 124.5,213.5C 125.325,214.386 126.325,214.719 127.5,214.5C 117.029,216.972 106.362,219.139 95.5,221C 94.5842,221.278 93.9175,221.778 93.5,222.5C 92.8333,222.5 92.1667,222.5 91.5,222.5C 89.8333,222.5 88.1667,222.5 86.5,222.5C 85.0402,214.788 83.3735,207.121 81.5,199.5C 79.4352,199.517 77.4352,199.85 75.5,200.5C 71.4454,200.824 67.4454,200.491 63.5,199.5C 62.8075,198.482 62.1408,197.482 61.5,196.5C 63.228,193.21 66.0614,191.544 70,191.5C 72.9541,191.594 73.1208,192.094 70.5,193C 73.8758,194.899 77.5425,195.732 81.5,195.5C 81.5,194.5 81.5,193.5 81.5,192.5C 71.4524,192.192 71.6191,190.525 82,187.5C 83.6755,189.38 85.3421,191.38 87,193.5C 88.1244,190.158 89.6244,189.825 91.5,192.5 Z"/></g>
<g><path style="opacity:0.235" fill="#454545" d="M 39.5,212.5 C 42.1667,212.5 44.8333,212.5 47.5,212.5C 41.7668,215.078 35.7668,217.078 29.5,218.5C 32.865,216.538 36.5317,215.038 40.5,214C 39.944,213.617 39.6107,213.117 39.5,212.5 Z"/></g>
<g><path style="opacity:0.852" fill="#6a6a6a" d="M 192.5,190.5 C 172.301,207.253 148.967,216.919 122.5,219.5C 115.755,219.036 109.255,220.036 103,222.5C 100.846,221.748 98.6797,221.581 96.5,222C 97.5,222.333 98.5,222.667 99.5,223C 98.5842,223.278 97.9175,223.778 97.5,224.5C 96.1266,224.657 94.7932,224.49 93.5,224C 96.0972,223.221 96.0972,222.721 93.5,222.5C 93.9175,221.778 94.5842,221.278 95.5,221C 106.362,219.139 117.029,216.972 127.5,214.5C 135.585,213.529 143.585,212.029 151.5,210C 154.152,209.647 156.152,208.48 157.5,206.5C 162.713,205.152 167.713,203.319 172.5,201C 174.174,198.495 176.507,196.995 179.5,196.5C 180.873,196.657 182.207,196.49 183.5,196C 185.679,195.558 186.345,194.558 185.5,193C 188.06,192.616 190.394,191.783 192.5,190.5 Z"/></g>
<g><path style="opacity:0.936" fill="#7c7c7c" d="M 39.5,212.5 C 39.6107,213.117 39.944,213.617 40.5,214C 36.5317,215.038 32.865,216.538 29.5,218.5C 27.5,218.167 25.5,217.833 23.5,217.5C 28.4031,214.729 33.7364,213.063 39.5,212.5 Z"/></g>
<g><path style="opacity:0.761" fill="#696969" d="M 29.5,191.5 C 29.6567,192.873 29.49,194.207 29,195.5C 25.2219,202.722 21.7219,210.055 18.5,217.5C 20.0948,218.434 21.7615,218.434 23.5,217.5C 25.5,217.833 27.5,218.167 29.5,218.5C 24.6047,221.689 19.2714,223.023 13.5,222.5C 18.6077,211.949 23.941,201.615 29.5,191.5 Z"/></g>
<g><path style="opacity:0.11" fill="#3c3c3c" d="M 122.5,219.5 C 114.363,221.527 106.029,223.194 97.5,224.5C 97.9175,223.778 98.5842,223.278 99.5,223C 98.5,222.667 97.5,222.333 96.5,222C 98.6797,221.581 100.846,221.748 103,222.5C 109.255,220.036 115.755,219.036 122.5,219.5 Z"/></g>
<g><path style="opacity:0.834" fill="#4e4d4e" d="M 91.5,222.5 C 92.1667,222.5 92.8333,222.5 93.5,222.5C 96.0972,222.721 96.0972,223.221 93.5,224C 94.7932,224.49 96.1266,224.657 97.5,224.5C 93.3869,226.108 89.0536,226.941 84.5,227C 82.0896,220.324 79.9229,213.49 78,206.5C 76.6062,204.598 74.7729,204.265 72.5,205.5C 74.3778,203.491 76.5444,203.158 79,204.5C 79.3333,203.167 79.6667,201.833 80,200.5C 80.4028,208.197 81.7361,215.864 84,223.5C 84.7412,224.641 85.5745,224.641 86.5,223.5C 87.1924,224.025 87.6924,224.692 88,225.5C 88.985,224.186 90.1516,223.186 91.5,222.5 Z"/></g>
<g><path style="opacity:0.004" fill="#000000" d="M 214.5,225.5 C 215.833,226.167 215.833,226.167 214.5,225.5 Z"/></g>
<g><path style="opacity:0.004" fill="#000000" d="M 157.5,228.5 C 158.833,229.167 158.833,229.167 157.5,228.5 Z"/></g>
<g><path style="opacity:0.004" fill="#000000" d="M 103.5,234.5 C 104.833,235.167 104.833,235.167 103.5,234.5 Z"/></g>
</svg>
